<svg width="412" height="412" viewBox="0 0 412 412" fill="none" xmlns="http://www.w3.org/2000/svg">
<path d="M272.214 70.2664C274.156 58.2462 265.987 46.9271 253.967 44.9844C241.947 43.0417 230.627 51.2112 228.685 63.2314C226.742 75.2516 234.912 86.5707 246.932 88.5133C258.952 90.456 270.271 82.2865 272.214 70.2664Z" fill="#EBEBEB"/>
<path d="M272.314 71.517C274.184 60.0826 266.431 49.2969 254.997 47.4265C243.562 45.556 232.777 53.3092 230.906 64.7436C229.036 76.1781 236.789 86.9638 248.223 88.8342C259.658 90.7046 270.444 82.9514 272.314 71.517Z" fill="#DBDBDB"/>
<path d="M260.257 85.9533C270.351 81.8289 275.19 70.3027 271.066 60.2087C266.941 50.1147 255.415 45.2755 245.321 49.3999C235.227 53.5243 230.388 65.0506 234.512 75.1445C238.637 85.2385 250.163 90.0778 260.257 85.9533Z" fill="white"/>
<path d="M251.872 49.9014H251.37V52.8843H251.872V49.9014Z" fill="#EBEBEB"/>
<path d="M242.733 52.2424L242.298 52.4937L243.789 55.0772L244.224 54.8259L242.733 52.2424Z" fill="#EBEBEB"/>
<path d="M236.205 57.8699L235.954 58.3072L238.549 59.7986L238.8 59.3613L236.205 57.8699Z" fill="#EBEBEB"/>
<path d="M236.381 67.8811H233.398V68.3837H236.381V67.8811Z" fill="#EBEBEB"/>
<path d="M238.302 75.5486L235.719 77.0405L235.97 77.4757L238.553 75.9838L238.302 75.5486Z" fill="#EBEBEB"/>
<path d="M243.783 81.2022L242.293 83.7863L242.728 84.0373L244.218 81.4533L243.783 81.2022Z" fill="#EBEBEB"/>
<path d="M251.872 83.3806H251.37V86.3634H251.872V83.3806Z" fill="#EBEBEB"/>
<path d="M259.471 81.232L259.036 81.4833L260.527 84.0666L260.962 83.8153L259.471 81.232Z" fill="#EBEBEB"/>
<path d="M264.944 75.5391L264.693 75.9744L267.269 77.4617L267.52 77.0264L264.944 75.5391Z" fill="#EBEBEB"/>
<path d="M269.852 67.8811H266.869V68.3837H269.852V67.8811Z" fill="#EBEBEB"/>
<path d="M267.273 58.796L264.697 60.2833L264.948 60.7186L267.524 59.2313L267.273 58.796Z" fill="#EBEBEB"/>
<path d="M260.535 52.2318L259.045 54.8158L259.48 55.0669L260.97 52.4829L260.535 52.2318Z" fill="#EBEBEB"/>
<path d="M254.533 61.8254L245.911 78.7765L246.359 79.0044L254.981 62.0533L254.533 61.8254Z" fill="#EBEBEB"/>
<path d="M250.616 61.3753L249.962 61.5063L253.638 79.8714L254.293 79.7404L250.616 61.3753Z" fill="#DBDBDB"/>
<path d="M187.048 209.972H45.5838V46.6055H187.048V209.972ZM48.8716 206.676H183.752V49.9015H48.8798L48.8716 206.676Z" fill="#EBEBEB"/>
<path d="M116.679 50.7667H113.383V208.324H116.679V50.7667Z" fill="#EBEBEB"/>
<path d="M190.048 53.2716H42.5927V57.8613H190.048V53.2716Z" fill="#EBEBEB"/>
<path d="M190.048 58.4381H42.5927V63.0278H190.048V58.4381Z" fill="#EBEBEB"/>
<path d="M190.048 63.5963H42.5927V68.186H190.048V63.5963Z" fill="#EBEBEB"/>
<path d="M190.048 68.7628H42.5927V73.3525H190.048V68.7628Z" fill="#EBEBEB"/>
<path d="M190.048 73.9293H42.5927V78.519H190.048V73.9293Z" fill="#EBEBEB"/>
<path d="M190.048 79.0875H42.5927V83.6772H190.048V79.0875Z" fill="#EBEBEB"/>
<path d="M190.048 84.254H42.5927V88.8437H190.048V84.254Z" fill="#EBEBEB"/>
<path d="M190.048 89.4205H42.5927V94.0102H190.048V89.4205Z" fill="#EBEBEB"/>
<path d="M190.048 94.5787H42.5927V99.1684H190.048V94.5787Z" fill="#EBEBEB"/>
<path d="M180.258 52.3405H179.434V158.134H180.258V52.3405Z" fill="#263238"/>
<path d="M181.305 161.974H178.38L179.113 157.771H180.571L181.305 161.974Z" fill="#263238"/>
<path d="M183.225 52.3405H182.401V205.382H183.225V52.3405Z" fill="#263238"/>
<path d="M184.271 208.472H181.354L182.079 204.27H183.546L184.271 208.472Z" fill="#263238"/>
<path d="M195.156 45.9627H37.4756V55.5623H195.156V45.9627Z" fill="#DBDBDB"/>
<path d="M378.612 83.7679H289.719V195.708H378.612V83.7679Z" fill="#EBEBEB"/>
<path d="M367.298 106.898H300.727V109.015H367.298V106.898Z" fill="#DBDBDB"/>
<path d="M357.097 111.331H300.727V113.448H357.097V111.331Z" fill="#DBDBDB"/>
<path d="M343.715 115.756H300.727V117.873H343.715V115.756Z" fill="#DBDBDB"/>
<path d="M364.974 120.189H300.727V122.306H364.974V120.189Z" fill="#DBDBDB"/>
<path d="M359.511 124.614H300.727V126.731H359.511V124.614Z" fill="#DBDBDB"/>
<path d="M361.728 133.472H300.727V135.589H361.728V133.472Z" fill="#DBDBDB"/>
<path d="M324.096 137.905H300.727V140.022H324.096V137.905Z" fill="#DBDBDB"/>
<path d="M347.852 142.33H300.727V144.447H347.852V142.33Z" fill="#DBDBDB"/>
<path d="M364.974 146.763H300.727V148.88H364.974V146.763Z" fill="#DBDBDB"/>
<path d="M356.125 151.188H300.727V153.305H356.125V151.188Z" fill="#DBDBDB"/>
<path d="M360.756 160.046H300.727V162.163H360.756V160.046Z" fill="#DBDBDB"/>
<path d="M337.066 164.479H300.727V166.596H337.066V164.479Z" fill="#DBDBDB"/>
<path d="M337.066 177.885H300.727V180.003H337.066V177.885Z" fill="#DBDBDB"/>
<path d="M361.687 186.735C365.405 186.735 368.419 183.721 368.419 180.003C368.419 176.285 365.405 173.271 361.687 173.271C357.969 173.271 354.955 176.285 354.955 180.003C354.955 183.721 357.969 186.735 361.687 186.735Z" fill="#1C1C1C"/>
<path d="M310.648 92.3951C311.457 92.3956 312.243 92.6652 312.881 93.1615C312.907 93.1808 312.929 93.2054 312.946 93.2336C312.962 93.2619 312.973 93.2932 312.977 93.3256C312.981 93.358 312.978 93.3909 312.968 93.4222C312.959 93.4535 312.943 93.4825 312.922 93.5075C312.904 93.5332 312.88 93.555 312.853 93.5714C312.826 93.5878 312.795 93.5987 312.764 93.6033C312.732 93.6079 312.7 93.6061 312.67 93.5982C312.639 93.5903 312.61 93.5762 312.585 93.557C312.034 93.119 311.351 92.8808 310.648 92.8813C309.846 92.8813 309.077 93.1999 308.51 93.767C307.943 94.3342 307.624 95.1033 307.624 95.9054C307.624 96.7074 307.943 97.4766 308.51 98.0437C309.077 98.6109 309.846 98.9295 310.648 98.9295C311.347 98.94 312.027 98.7037 312.568 98.262C312.594 98.2406 312.623 98.2249 312.656 98.2161C312.688 98.2073 312.721 98.2056 312.754 98.2111C312.787 98.2166 312.819 98.2291 312.846 98.2479C312.874 98.2666 312.897 98.2911 312.914 98.3197C312.939 98.3414 312.958 98.368 312.972 98.3978C312.985 98.4276 312.992 98.46 312.992 98.4927C312.992 98.5255 312.985 98.5578 312.972 98.5877C312.958 98.6175 312.939 98.6441 312.914 98.6658C312.272 99.154 311.488 99.4175 310.681 99.4156C310.22 99.4156 309.764 99.3248 309.338 99.1484C308.912 98.972 308.525 98.7135 308.199 98.3875C307.873 98.0615 307.614 97.6746 307.438 97.2487C307.262 96.8228 307.171 96.3664 307.171 95.9054C307.171 95.4444 307.262 94.988 307.438 94.5621C307.614 94.1362 307.873 93.7492 308.199 93.4233C308.525 93.0973 308.912 92.8387 309.338 92.6623C309.764 92.4859 310.22 92.3951 310.681 92.3951H310.648Z" fill="#A6A6A6"/>
<path d="M317.792 92.3951C318.495 92.3589 319.193 92.5342 319.795 92.8985C320.397 93.2628 320.876 93.7993 321.17 94.4386C321.464 95.078 321.56 95.7909 321.444 96.4852C321.329 97.1794 321.008 97.8232 320.523 98.3332C320.039 98.8433 319.412 99.1962 318.724 99.3464C318.037 99.4965 317.32 99.4371 316.666 99.1757C316.013 98.9142 315.453 98.4629 315.059 97.8799C314.665 97.2969 314.454 96.6091 314.455 95.9054C314.441 95.455 314.516 95.0063 314.677 94.5853C314.837 94.1643 315.08 93.7794 315.39 93.4528C315.7 93.1263 316.073 92.8646 316.485 92.6831C316.897 92.5015 317.342 92.4036 317.792 92.3951ZM317.792 98.9294C318.396 98.9641 318.997 98.8166 319.517 98.506C320.036 98.1955 320.451 97.7362 320.706 97.1876C320.962 96.6389 321.047 96.0262 320.951 95.4287C320.854 94.8311 320.581 94.2763 320.166 93.8358C319.75 93.3954 319.213 93.0898 318.622 92.9584C318.031 92.827 317.414 92.8759 316.851 93.0988C316.289 93.3217 315.806 93.7083 315.465 94.2087C315.125 94.709 314.942 95.3001 314.941 95.9054C314.919 96.6842 315.207 97.4401 315.741 98.0071C316.276 98.574 317.013 98.9057 317.792 98.9294Z" fill="#A6A6A6"/>
<path d="M323.412 93.5158V99.1767C323.418 99.2112 323.417 99.2467 323.408 99.2807C323.4 99.3147 323.383 99.3464 323.361 99.3734C323.339 99.4004 323.31 99.4222 323.279 99.4371C323.247 99.4521 323.212 99.4598 323.177 99.4598C323.142 99.4598 323.107 99.4521 323.075 99.4371C323.044 99.4222 323.016 99.4004 322.993 99.3734C322.971 99.3464 322.955 99.3147 322.946 99.2807C322.937 99.2467 322.936 99.2112 322.942 99.1767V92.8319C322.926 92.7849 322.925 92.7339 322.94 92.6863C322.954 92.6388 322.984 92.5974 323.025 92.5682C323.077 92.5323 323.142 92.5182 323.205 92.529C323.268 92.5397 323.324 92.5745 323.362 92.6259L327.557 98.3939V92.766C327.557 92.704 327.581 92.6444 327.624 92.5998C327.667 92.5552 327.725 92.5291 327.787 92.527C327.819 92.5259 327.851 92.5312 327.881 92.5428C327.911 92.5543 327.939 92.5717 327.962 92.594C327.985 92.6163 328.003 92.643 328.016 92.6726C328.028 92.7021 328.035 92.7339 328.035 92.766V99.1355C328.035 99.1676 328.028 99.1993 328.016 99.2289C328.003 99.2584 327.985 99.2851 327.962 99.3074C327.939 99.3297 327.911 99.3472 327.881 99.3587C327.851 99.3702 327.819 99.3755 327.787 99.3744C327.752 99.3741 327.718 99.3658 327.686 99.3501C327.655 99.3344 327.627 99.3117 327.606 99.2838C327.596 99.2805 327.588 99.2751 327.581 99.268C327.573 99.2608 327.568 99.2522 327.565 99.2426L323.412 93.5158Z" fill="#A6A6A6"/>
<path d="M332.22 92.9802H330.136C330.072 92.978 330.011 92.9511 329.966 92.9049C329.922 92.8588 329.897 92.7971 329.897 92.733C329.899 92.6703 329.925 92.6107 329.969 92.5663C330.013 92.5219 330.073 92.4961 330.136 92.494H334.783C334.846 92.4961 334.905 92.5219 334.95 92.5663C334.994 92.6107 335.02 92.6703 335.022 92.733C335.022 92.7971 334.997 92.8588 334.953 92.9049C334.908 92.9511 334.847 92.978 334.783 92.9802H332.698V99.1767C332.698 99.24 332.673 99.3008 332.628 99.3456C332.584 99.3904 332.523 99.4156 332.459 99.4156C332.396 99.4156 332.335 99.3904 332.29 99.3456C332.246 99.3008 332.22 99.24 332.22 99.1767V92.9802Z" fill="#A6A6A6"/>
<path d="M340.312 97.85C340.312 97.6429 340.262 97.4388 340.164 97.2562C340.066 97.0736 339.924 96.918 339.752 96.8035C339.501 96.6376 339.222 96.5202 338.928 96.4575H338.878H337.23V99.1931C337.22 99.2499 337.19 99.3013 337.145 99.3382C337.101 99.3752 337.045 99.3954 336.987 99.3954C336.929 99.3954 336.874 99.3752 336.829 99.3382C336.785 99.3013 336.755 99.2499 336.744 99.1931V92.7495C336.747 92.6911 336.77 92.6356 336.809 92.5921C336.848 92.5487 336.901 92.5198 336.958 92.5105H338.936C339.383 92.5152 339.816 92.6715 340.163 92.9539C340.511 93.2363 340.752 93.6281 340.847 94.0653C340.943 94.5024 340.888 94.9591 340.69 95.3607C340.493 95.7623 340.165 96.0851 339.76 96.2762C339.79 96.2975 339.824 96.3142 339.859 96.3256C340.138 96.4758 340.371 96.698 340.535 96.969C340.698 97.24 340.787 97.5499 340.79 97.8665C340.776 98.1438 340.803 98.4216 340.872 98.6905C340.891 98.753 340.925 98.8098 340.971 98.8553C341.027 98.8488 341.084 98.8605 341.133 98.8887C341.182 98.9169 341.221 98.9601 341.243 99.0119C341.259 99.0753 341.251 99.1421 341.223 99.2008C341.194 99.2594 341.146 99.3063 341.087 99.3332H340.947C340.851 99.3239 340.759 99.2893 340.681 99.2328C340.602 99.1763 340.541 99.1001 340.502 99.0119C340.341 98.6469 340.276 98.2471 340.312 97.85ZM338.928 92.9802H337.222V95.9631H338.969C339.364 95.9576 339.742 95.7952 340.018 95.5117C340.293 95.2281 340.445 94.8466 340.44 94.451C340.434 94.0555 340.272 93.6783 339.988 93.4025C339.705 93.1266 339.323 92.9747 338.928 92.9802Z" fill="#A6A6A6"/>
<path d="M346.805 97.6275H343.649L343.04 99.2755C343.023 99.3212 342.993 99.3606 342.953 99.3886C342.913 99.4165 342.866 99.4317 342.817 99.4321H342.726C342.666 99.4065 342.619 99.359 342.593 99.2992C342.567 99.2395 342.564 99.1721 342.586 99.1107L344.984 92.7C345.006 92.6553 345.04 92.6176 345.082 92.5913C345.125 92.5651 345.173 92.5513 345.223 92.5517C345.273 92.5492 345.323 92.5621 345.366 92.5886C345.408 92.6151 345.442 92.6539 345.462 92.7L347.86 99.1107C347.883 99.1701 347.883 99.2359 347.86 99.2954C347.838 99.3548 347.793 99.4036 347.736 99.4321H347.646C347.596 99.4312 347.548 99.4159 347.507 99.3881C347.466 99.3603 347.434 99.3212 347.415 99.2755L346.805 97.6275ZM343.831 97.1414H346.632L345.231 93.4251L343.831 97.1414Z" fill="#A6A6A6"/>
<path d="M352.301 92.3951C353.11 92.3956 353.896 92.6652 354.534 93.1615C354.561 93.1808 354.583 93.2054 354.599 93.2336C354.615 93.2619 354.626 93.2932 354.63 93.3256C354.634 93.358 354.631 93.3909 354.622 93.4222C354.612 93.4535 354.597 93.4825 354.576 93.5075C354.557 93.5332 354.533 93.555 354.506 93.5714C354.479 93.5878 354.448 93.5987 354.417 93.6033C354.386 93.6079 354.353 93.6061 354.323 93.5982C354.292 93.5903 354.263 93.5762 354.238 93.557C353.687 93.119 353.005 92.8808 352.301 92.8813C351.499 92.8813 350.73 93.1999 350.163 93.767C349.596 94.3342 349.277 95.1033 349.277 95.9054C349.277 96.7074 349.596 97.4766 350.163 98.0437C350.73 98.6109 351.499 98.9295 352.301 98.9295C353 98.94 353.68 98.7037 354.221 98.262C354.247 98.2406 354.277 98.2249 354.309 98.2161C354.341 98.2073 354.375 98.2056 354.408 98.2111C354.44 98.2166 354.472 98.2291 354.499 98.2479C354.527 98.2666 354.55 98.2911 354.567 98.3197C354.592 98.3414 354.611 98.368 354.625 98.3978C354.638 98.4276 354.645 98.46 354.645 98.4927C354.645 98.5255 354.638 98.5578 354.625 98.5877C354.611 98.6175 354.592 98.6441 354.567 98.6658C353.925 99.154 353.141 99.4175 352.334 99.4156C351.873 99.4156 351.417 99.3248 350.991 99.1484C350.565 98.972 350.178 98.7135 349.852 98.3875C349.526 98.0615 349.268 97.6746 349.091 97.2487C348.915 96.8228 348.824 96.3664 348.824 95.9054C348.824 95.4444 348.915 94.988 349.091 94.5621C349.268 94.1362 349.526 93.7492 349.852 93.4233C350.178 93.0973 350.565 92.8387 350.991 92.6623C351.417 92.4859 351.873 92.3951 352.334 92.3951H352.301Z" fill="#A6A6A6"/>
<path d="M358.44 92.9802H356.355C356.291 92.978 356.231 92.9511 356.186 92.9049C356.141 92.8588 356.116 92.7971 356.116 92.733C356.119 92.6703 356.144 92.6107 356.189 92.5663C356.233 92.5219 356.293 92.4961 356.355 92.494H361.003C361.065 92.4961 361.125 92.5219 361.169 92.5663C361.214 92.6107 361.24 92.6703 361.242 92.733C361.243 92.765 361.237 92.797 361.226 92.827C361.214 92.8569 361.197 92.8842 361.175 92.9073C361.152 92.9304 361.126 92.9487 361.096 92.9612C361.067 92.9738 361.035 92.9802 361.003 92.9802H358.918V99.1767C358.918 99.24 358.893 99.3008 358.848 99.3456C358.803 99.3904 358.742 99.4156 358.679 99.4156C358.616 99.4156 358.555 99.3904 358.51 99.3456C358.465 99.3008 358.44 99.24 358.44 99.1767V92.9802Z" fill="#A6A6A6"/>
<path d="M211.76 301.699H375.003L378.397 234.725H208.365L211.76 301.699Z" fill="#EBEBEB"/>
<path d="M367.265 265.386H299.013L297.736 242.132H368.757L367.265 265.386ZM299.796 264.562H366.491L367.875 242.956H298.609L299.796 264.562Z" fill="#DBDBDB"/>
<path d="M366.004 292.133H301.691L300.645 271.145H367.315L366.004 292.133ZM302.474 291.309H365.23L366.441 271.969H301.51L302.474 291.309Z" fill="#DBDBDB"/>
<path d="M339.711 256.264H328.241L327.524 250.653H340.436L339.711 256.264ZM328.999 255.44H339.018L339.529 251.477H328.488L328.999 255.44Z" fill="#DBDBDB"/>
<path d="M339.711 284.445H328.241L327.524 278.833H340.436L339.711 284.445ZM328.999 283.621H339.018L339.529 279.657H328.488L328.999 283.621Z" fill="#DBDBDB"/>
<path d="M286.991 265.386H218.739L217.462 242.132H288.483L286.991 265.386ZM219.522 264.562H286.217L287.576 242.956H218.36L219.522 264.562Z" fill="#DBDBDB"/>
<path d="M285.73 292.133H221.417L220.371 271.145H287.041L285.73 292.133ZM222.2 291.309H284.956L286.167 271.969H221.236L222.2 291.309Z" fill="#DBDBDB"/>
<path d="M259.437 256.264H247.966L247.25 250.653H260.162L259.437 256.264ZM248.725 255.44H258.736L259.247 251.477H248.205L248.725 255.44Z" fill="#DBDBDB"/>
<path d="M259.437 284.445H247.966L247.25 278.833H260.162L259.437 284.445ZM248.725 283.621H258.736L259.247 279.657H248.205L248.725 283.621Z" fill="#DBDBDB"/>
<path d="M226.402 301.699L225.372 309L223.312 323.659H219.283V301.699H226.402Z" fill="#EBEBEB"/>
<path d="M226.402 301.699L225.372 309H219.283V301.699H226.402Z" fill="#DBDBDB"/>
<path d="M360.36 301.699L361.382 309L363.45 323.659H367.479V301.699H360.36Z" fill="#EBEBEB"/>
<path d="M360.36 301.699L361.382 309H367.479V301.699H360.36Z" fill="#DBDBDB"/>
<path d="M206 389.678C288.115 389.678 354.683 381.005 354.683 370.306C354.683 359.607 288.115 350.933 206 350.933C123.885 350.933 57.3176 359.607 57.3176 370.306C57.3176 381.005 123.885 389.678 206 389.678Z" fill="#EBEBEB"/>
<path d="M69.6117 349.104C94.1952 349.104 114.124 344.33 114.124 338.441C114.124 332.553 94.1952 327.779 69.6117 327.779C45.0281 327.779 25.0992 332.553 25.0992 338.441C25.0992 344.33 45.0281 349.104 69.6117 349.104Z" fill="#EBEBEB"/>
<path d="M27.5217 323.659L72.1413 323.461L116.761 323.387L206 323.255L295.239 323.387L339.859 323.461L384.479 323.659L339.859 323.865L295.239 323.939L206 324.071L116.761 323.939L72.1413 323.865L27.5217 323.659Z" fill="#263238"/>
<path d="M70.9218 180.959C70.9218 180.959 48.7644 177.86 53.9392 151.105C53.9392 151.105 78.7004 156.667 70.9218 180.959Z" fill="#1C1C1C"/>
<path opacity="0.1" d="M70.9218 180.959C70.9218 180.959 48.7644 177.86 53.9392 151.105C53.9392 151.105 78.7004 156.667 70.9218 180.959Z" fill="black"/>
<path d="M69.8012 175.372C69.3683 174.02 68.865 172.691 68.2932 171.392C68.2932 171.219 68.2932 171.046 68.2355 170.881C68.2355 170.51 68.1696 170.148 68.1449 169.777C68.079 168.953 68.0296 168.178 67.9801 167.379C67.8895 165.781 67.7906 164.182 67.7659 162.583C67.7659 162.493 67.6258 162.501 67.6258 162.583C67.6258 164.19 67.6258 165.789 67.6258 167.387C67.6258 168.211 67.7082 168.986 67.7576 169.785C67.7576 169.967 67.7576 170.14 67.7576 170.321C66.5123 167.656 65.0227 165.113 63.308 162.724C62.5856 161.659 61.8072 160.633 60.9761 159.65C60.0944 158.637 59.1633 157.672 58.2652 156.675C58.2075 156.609 58.1168 156.675 58.1745 156.774C59.7656 158.534 61.1942 160.434 62.4428 162.452C63.1185 163.465 63.753 164.512 64.3628 165.575L64.1568 165.5L63.3328 165.179L61.52 164.495C60.3334 164.05 59.1468 163.622 57.9603 163.169C57.8861 163.169 57.8367 163.267 57.9108 163.292C59.0892 163.762 60.251 164.256 61.4211 164.759L63.135 165.5L64.0002 165.855C64.1858 165.948 64.3823 166.017 64.5852 166.061C65.0302 166.885 65.4752 167.668 65.8872 168.492C66.9148 170.564 67.8173 172.697 68.5899 174.878C68.6476 175.026 68.697 175.182 68.7547 175.339C68.1694 175.002 67.5608 174.708 66.9336 174.457L64.6429 173.419C63.0855 172.702 61.5447 171.977 60.0532 171.137C60.0379 171.128 60.0198 171.126 60.0028 171.13C59.9858 171.135 59.9713 171.146 59.9626 171.161C59.9538 171.177 59.9515 171.195 59.9562 171.212C59.9608 171.229 59.972 171.243 59.9873 171.252C61.5117 172.076 63.0031 172.974 64.5276 173.798C65.2939 174.21 66.0602 174.622 66.843 174.993C67.4872 175.376 68.1881 175.654 68.9195 175.817C69.6629 177.844 70.1528 179.956 70.378 182.104C70.6252 185.128 70.6004 188.177 70.6746 191.209H70.7488C70.9712 188.457 71.0948 185.68 71.1113 182.92C71.0789 180.35 70.6367 177.802 69.8012 175.372Z" fill="#263238"/>
<path d="M66.3898 159.642C66.1759 161.206 66.1014 162.786 66.1673 164.363C66.1673 164.405 66.2333 164.405 66.2333 164.363C66.3239 162.798 66.3404 161.232 66.5217 159.675C66.5299 159.592 66.3981 159.559 66.3898 159.642Z" fill="#263238"/>
<path d="M60.0532 160.985C59.0626 160.605 58.1083 160.136 57.2022 159.584C57.128 159.535 57.0621 159.658 57.1363 159.699C58.024 160.299 58.996 160.762 60.0203 161.076C60.0697 161.092 60.1521 161.01 60.0532 160.985Z" fill="#263238"/>
<path d="M71.6304 223.428C71.6304 220.956 71.5645 218.533 71.5398 216.086C71.4903 207.953 71.4244 199.82 71.2761 191.687C71.1607 185.227 71.0097 178.772 70.8229 172.323C70.8223 172.306 70.8175 172.29 70.8089 172.276C70.8002 172.261 70.788 172.249 70.7735 172.241C70.7735 170.477 70.7735 168.714 70.7735 166.951C70.7735 166.901 70.724 166.885 70.6663 166.885C70.6087 166.885 70.5592 166.885 70.5675 166.951C70.5675 168.72 70.5675 170.486 70.5675 172.249C70.5675 172.249 70.5098 172.29 70.5098 172.323C70.1884 183.859 69.9 195.305 69.8259 206.799C69.8259 209.139 69.8259 211.471 69.8259 213.812C69.7435 221.299 69.7132 228.792 69.7352 236.29C69.7352 237.477 69.7352 238.672 69.7352 239.866C69.7352 246.722 69.8094 253.578 69.8094 260.466C69.8094 260.829 70.2214 261.019 70.6334 261.035C71.0454 261.051 71.6634 260.854 71.6634 260.433C71.6634 252.877 71.7128 245.313 71.7128 237.757C71.6881 232.961 71.6881 228.19 71.6304 223.428Z" fill="#263238"/>
<path d="M62.3769 215.987C62.3769 215.987 51.7144 208.093 41.6039 213.416C31.4934 218.739 29.8948 239.323 29.8948 239.323C29.8948 239.323 44.7268 241.449 54.104 232.541C63.1185 223.971 62.3769 215.987 62.3769 215.987Z" fill="#1C1C1C"/>
<path d="M65.2774 216.473C63.3198 215.693 61.1994 215.41 59.1057 215.649C58.6756 215.573 58.2404 215.528 57.8037 215.517L56.2958 215.402L53.1894 215.188C51.0882 215.031 48.9787 214.899 46.8775 214.685C46.863 214.69 46.8504 214.7 46.8414 214.712C46.8325 214.725 46.8277 214.74 46.8277 214.755C46.8277 214.77 46.8325 214.785 46.8414 214.798C46.8504 214.811 46.863 214.82 46.8775 214.825C48.954 215.089 50.9975 215.385 53.0987 215.591C54.1699 215.699 55.2411 215.814 56.3205 215.888L57.0951 215.962C56.782 216.036 56.4606 216.111 56.1475 216.201C54.4751 216.688 52.8571 217.345 51.3189 218.162C50.4949 218.311 49.6709 218.55 48.8469 218.739C47.5285 219.052 46.2183 219.39 44.9081 219.736C42.3208 220.412 39.7581 221.178 37.1873 221.928C37.1049 221.928 37.1461 222.076 37.1873 222.052C39.7499 221.425 42.3373 220.849 44.9081 220.239L48.6491 219.341L49.6297 219.11C46.7696 220.889 44.2131 223.114 42.0571 225.702C39.9822 228.256 38.2175 231.047 36.8 234.016C36.8 234.09 36.8659 234.164 36.9153 234.09C38.6701 231.055 40.8111 228.26 43.2849 225.776C43.2354 225.916 43.1942 226.064 43.1448 226.205L42.5515 228.083C42.156 229.344 41.7275 230.596 41.3814 231.857C41.3814 231.94 41.4885 231.964 41.5133 231.857C41.9665 230.638 42.3949 229.385 42.8234 228.19C43.0294 227.589 43.2437 226.996 43.4497 226.394C43.565 226.081 43.6721 225.768 43.771 225.455C43.771 225.364 43.8452 225.265 43.8781 225.166C45.066 224.013 46.3266 222.937 47.6521 221.944C49.412 220.657 51.3109 219.571 53.3129 218.706C53.3129 218.887 53.247 219.077 53.2058 219.25C53.0987 219.736 52.9916 220.222 52.8927 220.708C52.6867 221.714 52.4889 222.727 52.2912 223.741C51.8874 225.801 51.6402 227.861 51.2529 229.954C51.2529 230.044 51.3683 230.077 51.3848 229.954C51.8627 227.877 52.4807 225.834 52.9421 223.757C53.1729 222.719 53.4036 221.681 53.6261 220.643L53.9227 219.176C53.9722 218.904 54.0381 218.632 54.071 218.352L54.6478 218.113C57.4412 217.075 60.5312 216.325 63.5141 216.902C64.925 217.163 66.2494 217.769 67.3694 218.666C68.4893 219.563 69.37 220.723 69.933 222.043C70.0319 222.274 70.3945 222.126 70.3368 221.887C69.76 219.365 67.6258 217.462 65.2774 216.473Z" fill="#263238"/>
<path d="M48.9622 225.257C48.6656 226.608 48.3607 227.96 48.064 229.311C47.7273 230.605 47.4796 231.921 47.3224 233.25C47.3224 233.307 47.3884 233.307 47.4048 233.25C47.7973 231.951 48.1001 230.627 48.3112 229.286C48.5749 227.951 48.8386 226.617 49.094 225.282C49.1105 225.207 48.9787 225.175 48.9622 225.257Z" fill="#263238"/>
<path d="M38.654 228.693C37.2944 229.377 35.9842 230.16 34.534 230.728C34.5259 230.731 34.5185 230.736 34.5122 230.742C34.5059 230.748 34.5009 230.756 34.4975 230.764C34.4941 230.772 34.4922 230.78 34.4921 230.789C34.492 230.798 34.4936 230.807 34.4969 230.815C34.5001 230.823 34.5049 230.83 34.5111 230.837C34.5172 230.843 34.5244 230.848 34.5325 230.851C34.5405 230.855 34.5491 230.856 34.5579 230.857C34.5666 230.857 34.5753 230.855 34.5834 230.852C36.0019 230.224 37.3854 229.519 38.7281 228.742C38.7281 228.742 38.7281 228.676 38.654 228.693Z" fill="#263238"/>
<path d="M64.7748 201.484C64.7748 201.484 51.7473 202.308 45.6827 193.731C39.618 185.153 40.9859 172.867 40.9859 172.867C40.9859 172.867 54.6725 174.515 60.1027 180.703C65.5328 186.891 64.7748 201.484 64.7748 201.484Z" fill="#1C1C1C"/>
<path d="M70.8641 214.339C70.4109 212.946 69.8506 211.57 69.3232 210.219C68.7959 208.868 68.2767 207.599 67.6752 206.313C66.515 203.688 65.214 201.127 63.7777 198.642C62.8548 197.06 61.866 195.519 60.8525 194.003C60.8525 193.772 60.7866 193.541 60.7536 193.31C60.696 192.907 60.6383 192.486 60.5724 192.099C60.4405 191.275 60.3004 190.451 60.1604 189.627C59.8637 187.823 59.4929 186.035 59.2045 184.238C59.2045 184.156 59.0562 184.156 59.0727 184.238C59.3281 186.018 59.5094 187.806 59.7566 189.586C59.8802 190.459 59.9956 191.333 60.1274 192.206L60.2757 193.154C58.2888 190.246 56.1374 187.453 53.832 184.79L52.9339 183.752C52.9339 183.653 52.8515 183.554 52.8103 183.455C52.7114 183.208 52.6208 182.961 52.5301 182.706C52.3324 182.195 52.1511 181.676 51.9616 181.156C51.599 180.135 51.2694 179.105 50.9892 178.058C50.9892 177.976 50.8409 178.017 50.8656 178.058C51.1293 179.129 51.4012 180.192 51.6896 181.247C51.8462 181.758 52.011 182.261 52.1923 182.763C52.1923 182.846 52.25 182.928 52.2829 183.01C50.6349 181.198 48.8798 179.451 47.1247 177.72C47.067 177.663 46.9764 177.72 47.034 177.819C50.4002 181.341 53.4859 185.121 56.2628 189.125C55.9468 189.025 55.6248 188.945 55.2988 188.886C54.2935 188.688 53.2882 188.548 52.2747 188.416C50.1487 188.144 48.0311 187.88 45.9216 187.542C45.831 187.542 45.798 187.658 45.9216 187.674C47.9404 188.07 49.9345 188.498 51.9451 188.993C52.8927 189.207 53.8403 189.388 54.7879 189.578C55.5651 189.743 56.3304 189.961 57.0786 190.229C57.2846 190.534 57.5071 190.83 57.7131 191.135C58.6689 192.519 59.5836 193.945 60.4817 195.37L59.1551 195.115C58.1498 194.917 57.1363 194.736 56.131 194.571C54.1452 194.242 52.1511 193.895 50.19 193.451C50.1076 193.451 50.0746 193.566 50.19 193.582C52.184 194.052 54.1534 194.596 56.131 195.123C57.0868 195.379 58.0509 195.609 59.015 195.824L60.457 196.137C60.6513 196.188 60.8499 196.221 61.0503 196.236C62.9537 199.317 64.7336 202.482 66.3898 205.703C67.1149 207.121 67.8153 208.554 68.491 209.988C69.1667 211.422 69.7847 212.979 70.4274 214.479C70.518 214.792 70.9877 214.669 70.8641 214.339Z" fill="#263238"/>
<path d="M57.5483 184.403C57.3011 183.159 57.0374 181.931 56.7243 180.678C56.7243 180.596 56.576 180.637 56.5925 180.678C56.8397 181.898 57.0786 183.15 57.3011 184.345C57.4829 185.574 57.7277 186.792 58.0345 187.996C57.9567 186.788 57.7943 185.588 57.5483 184.403Z" fill="#263238"/>
<path d="M49.951 184.04C49.3494 183.736 48.7067 183.497 48.0805 183.216L47.0917 182.829L46.5891 182.631C46.3965 182.569 46.2114 182.487 46.037 182.384C45.9381 182.318 45.8804 182.483 45.9793 182.5C46.1726 182.552 46.3581 182.63 46.5314 182.73L47.0258 182.953L47.9816 183.373C48.606 183.666 49.2471 183.922 49.9015 184.139C49.9757 184.197 50.0251 184.073 49.951 184.04Z" fill="#263238"/>
<path d="M78.1071 191.242C78.1071 191.242 85.9927 176.517 97.9819 174.235C109.971 171.952 117.321 184.296 117.321 184.296C117.321 184.296 108.57 195.469 97.5452 197.422C86.5201 199.375 78.1071 191.242 78.1071 191.242Z" fill="#1C1C1C"/>
<path d="M106.024 180.835C102.899 180.412 99.7281 180.45 96.6141 180.95L97.1497 180.662L99.8112 179.294C101.64 178.283 103.518 177.364 105.439 176.542C105.53 176.501 105.439 176.377 105.39 176.418C103.511 177.292 101.566 178.066 99.6876 178.89C98.74 179.319 97.8171 179.772 96.9025 180.258C96.3092 180.571 95.6583 180.868 95.0732 181.247C92.4387 181.775 89.8789 182.625 87.4512 183.777L88.9509 182.129C90.0633 180.901 91.1675 179.616 92.3952 178.503C92.4611 178.445 92.3952 178.355 92.2964 178.412C91.0439 179.55 89.7172 180.604 88.4977 181.791C87.9127 182.368 87.3441 182.961 86.792 183.579C86.5201 183.884 86.24 184.197 85.968 184.527C81.8489 186.732 78.27 189.823 75.4887 193.577C72.7075 197.332 70.7932 201.656 69.8835 206.239C69.8835 206.321 69.9907 206.363 70.0154 206.28C71.7046 200.666 74.73 195.546 78.8322 191.357C83.2532 186.869 88.8139 183.67 94.9167 182.104C98.5368 181.182 102.281 180.842 106.008 181.099C106.043 181.101 106.077 181.089 106.103 181.066C106.13 181.043 106.146 181.01 106.148 180.975C106.15 180.94 106.138 180.906 106.115 180.879C106.092 180.853 106.059 180.837 106.024 180.835Z" fill="#263238"/>
<path opacity="0.1" d="M117.321 184.296C117.321 184.296 108.57 195.469 97.5453 197.422C89.1487 198.905 82.2436 194.53 79.4173 192.371L78.8075 191.374C78.8075 191.374 84.4849 186.595 95.2298 183.834C105.975 181.074 117.321 184.296 117.321 184.296Z" fill="black"/>
<path d="M99.0532 175.586C98.1352 176.123 97.2467 176.709 96.3917 177.341C95.5584 177.977 94.7835 178.686 94.0762 179.459C94.067 179.474 94.0632 179.491 94.0655 179.508C94.0678 179.525 94.076 179.541 94.0887 179.553C94.1015 179.565 94.1179 179.571 94.1351 179.572C94.1524 179.573 94.1695 179.568 94.1833 179.558C95.0073 178.866 95.7737 178.174 96.6059 177.523C97.4074 176.863 98.2496 176.255 99.1273 175.701C99.1349 175.697 99.1415 175.69 99.1466 175.683C99.1517 175.676 99.1553 175.667 99.1573 175.658C99.1592 175.65 99.1593 175.641 99.1577 175.632C99.1561 175.623 99.1528 175.614 99.1479 175.607C99.1431 175.599 99.1368 175.593 99.1294 175.587C99.122 175.582 99.1136 175.579 99.1048 175.577C99.096 175.575 99.0869 175.575 99.0781 175.576C99.0692 175.578 99.0607 175.581 99.0532 175.586Z" fill="#263238"/>
<path d="M105.637 178.075C105.192 178.264 104.739 178.421 104.294 178.61L102.959 179.162C102.868 179.162 102.909 179.36 103.008 179.319L104.343 178.775C104.796 178.594 105.233 178.388 105.678 178.206C105.761 178.174 105.719 178.042 105.637 178.075Z" fill="#263238"/>
<path d="M76.5333 209.774C76.5333 209.774 78.6427 224.383 89.6266 229.492C100.611 234.601 114.001 229.492 114.001 229.492C114.001 229.492 108.768 197.892 76.5333 209.774Z" fill="#1C1C1C"/>
<path d="M106.428 220.008C105.423 219.893 104.409 219.72 103.412 219.538L101.929 219.258L101.163 219.102C100.866 218.83 100.578 218.549 100.273 218.278C98.1865 216.45 95.9356 214.82 93.5488 213.408C92.251 212.639 90.9082 211.948 89.5277 211.34H89.7337L93.3511 211.496C95.7571 211.611 98.1715 211.661 100.578 211.817C100.668 211.817 100.66 211.694 100.578 211.686C98.155 211.521 95.7489 211.257 93.3346 211.051L89.8243 210.738L88.0115 210.581L87.5501 210.532C86.9239 210.293 86.2976 210.071 85.6549 209.873C82.6609 208.845 79.4405 208.668 76.3519 209.362C73.5915 210.071 70.8311 211.883 70.1143 214.792C70.1143 214.891 70.2461 214.965 70.2873 214.866C71.3173 212.394 74.02 211.199 76.4591 210.697C78.0899 210.387 79.7611 210.354 81.4031 210.598C81.5138 211.35 81.6988 212.09 81.9551 212.806C82.26 213.836 82.5567 214.866 82.8698 215.888C83.496 217.94 84.1799 220.008 84.7897 222.027C84.7897 222.044 84.7966 222.061 84.809 222.073C84.8214 222.086 84.8381 222.093 84.8556 222.093C84.8731 222.093 84.8899 222.086 84.9022 222.073C84.9146 222.061 84.9215 222.044 84.9215 222.027C84.4107 219.975 83.9739 217.907 83.4795 215.847C83.2406 214.842 82.9851 213.836 82.7379 212.831C82.5944 212.129 82.41 211.435 82.1859 210.754C83.1482 210.922 84.1001 211.145 85.0369 211.422C86.722 211.926 88.3733 212.537 89.9809 213.251C90.1375 214.289 90.3764 215.319 90.6154 216.349C90.912 217.635 91.2499 218.912 91.6536 220.173C91.6583 220.185 91.6667 220.196 91.6778 220.204C91.6888 220.212 91.702 220.216 91.7154 220.216C91.7289 220.216 91.742 220.212 91.7531 220.204C91.7641 220.196 91.7725 220.185 91.7772 220.173L91.7278 219.934C91.4806 218.739 91.2169 217.544 90.9615 216.349C90.7637 215.385 90.5742 214.421 90.3682 213.465C91.7363 214.073 93.0729 214.75 94.3728 215.492C94.3728 215.789 94.4717 216.094 94.5129 216.366C94.5953 216.86 94.6859 217.363 94.7766 217.866C94.9826 218.986 95.2051 220.115 95.477 221.228C95.9741 223.382 96.6043 225.504 97.3639 227.581C97.3546 227.592 97.3495 227.607 97.3495 227.622C97.3495 227.637 97.3546 227.651 97.3639 227.663L97.4299 227.737C97.4793 227.795 97.5535 227.737 97.537 227.671C97.0343 225.504 96.4493 223.353 95.9714 221.186C95.7407 220.099 95.5017 219.011 95.2792 217.89C95.1721 217.346 95.0732 216.803 94.9661 216.242L94.8919 215.756C96.3714 216.623 97.7993 217.575 99.1685 218.607C101.54 220.383 103.733 222.383 105.719 224.581C105.793 224.672 105.95 224.581 105.876 224.449C105.06 223.342 104.189 222.278 103.264 221.26C102.712 220.667 102.135 220.09 101.55 219.53H101.731C102.25 219.621 102.761 219.695 103.28 219.761C104.294 219.901 105.316 220 106.337 220.115C106.486 220.132 106.519 220.008 106.428 220.008Z" fill="#263238"/>
<path d="M98.7153 224.952C98.7153 224.828 98.7153 224.697 98.6494 224.573C98.5835 224.449 98.5423 224.26 98.5175 224.095C98.2951 223.115 98.1055 222.134 97.9243 221.145C97.9243 221.079 97.8089 221.096 97.8089 221.145C97.8758 222.453 98.1541 223.741 98.6329 224.96C98.6329 225.001 98.7235 224.96 98.7153 224.96V224.952Z" fill="#263238"/>
<path d="M89.5195 224.713C89.5195 224.713 89.5195 224.647 89.4535 224.647C89.1404 223.353 88.8438 222.06 88.5801 220.758C88.44 220.074 88.2999 219.39 88.1681 218.706C88.0939 218.335 88.028 217.964 87.9621 217.594C87.9334 217.267 87.8527 216.947 87.7231 216.646C87.7185 216.633 87.71 216.623 87.699 216.615C87.6879 216.607 87.6748 216.603 87.6613 216.603C87.6479 216.603 87.6348 216.607 87.6237 216.615C87.6127 216.623 87.6042 216.633 87.5995 216.646C87.5909 217.31 87.6854 217.972 87.8797 218.607C88.0115 219.316 88.1516 220.033 88.3082 220.741C88.6295 222.183 88.9839 223.617 89.3959 225.034C89.4009 225.049 89.4104 225.062 89.4229 225.07C89.4355 225.079 89.4505 225.084 89.4659 225.084C89.4813 225.084 89.4963 225.079 89.5089 225.07C89.5214 225.062 89.5309 225.049 89.5359 225.034L89.5195 224.713Z" fill="#263238"/>
<path d="M105.472 215.781C103.462 215.509 101.459 215.221 99.4487 214.957C99.3663 214.957 99.3333 215.081 99.4487 215.089C101.451 215.385 103.462 215.633 105.472 215.913C105.472 215.929 105.513 215.797 105.472 215.781Z" fill="#263238"/>
<path d="M70.9053 175.512C70.9053 175.512 64.1815 146.029 95.8643 134.09C95.8643 134.09 104.648 172.908 70.9053 175.512Z" fill="#1C1C1C"/>
<path d="M77.7445 158.793L78.0823 158.587L79.8787 157.582L83.5537 155.53C85.968 154.17 88.3576 152.77 90.7884 151.41C90.8708 151.41 90.7884 151.253 90.7225 151.295C88.2505 152.621 85.7785 153.866 83.3477 155.159L79.7139 157.079L78.2307 157.903C79.2854 155.901 80.4143 153.94 81.6585 152.045C83.3065 149.515 85.1275 147.101 87.0145 144.76C87.0342 144.74 87.0448 144.712 87.044 144.683C87.0432 144.655 87.0311 144.628 87.0104 144.608C86.9896 144.588 86.9619 144.578 86.9333 144.578C86.9047 144.579 86.8776 144.591 86.8579 144.612C84.0758 147.311 81.6175 150.326 79.5326 153.594C79.5326 153.487 79.5326 153.379 79.5326 153.281C79.5326 152.547 79.5903 151.814 79.5985 151.08C79.5985 149.638 79.5491 148.196 79.5985 146.763C79.5985 146.672 79.4667 146.68 79.4584 146.763C79.4007 148.18 79.2277 149.597 79.1453 151.015C79.1453 151.715 79.0794 152.424 79.0547 153.132C79.0547 153.511 79.0547 153.956 79.0547 154.368C78.4064 155.406 77.7829 156.458 77.1842 157.524C76.1223 159.446 75.1758 161.43 74.3496 163.465C74.3496 162.732 74.2754 161.998 74.2342 161.265C74.1354 159.617 73.9459 158.043 73.8717 156.428C73.8717 156.411 73.8647 156.394 73.8524 156.382C73.84 156.369 73.8233 156.362 73.8058 156.362C73.7883 156.362 73.7715 156.369 73.7592 156.382C73.7468 156.394 73.7399 156.411 73.7399 156.428C73.7399 158.076 73.7399 159.658 73.7399 161.273C73.7399 162.097 73.7893 162.921 73.8387 163.696C73.8387 163.993 73.8387 164.297 73.8964 164.594C72.889 167.23 72.09 169.941 71.5068 172.702C70.9572 175.648 70.5639 178.622 70.3285 181.61C70.6478 178.922 71.1992 176.267 71.9765 173.675C72.3638 172.282 72.8005 170.898 73.229 169.555C74.5474 168.937 75.8081 168.162 77.0771 167.453L81.057 165.278C83.702 163.828 86.3388 162.353 89.0662 161.076C89.1404 161.076 89.0663 160.919 88.9921 160.96C86.2317 162.204 83.4466 163.432 80.7521 164.759C79.4007 165.443 78.0741 166.168 76.7557 166.909C75.6598 167.527 74.5227 168.145 73.4597 168.862C73.7646 167.939 74.0859 167.025 74.4402 166.127C75.4125 163.626 76.5155 161.178 77.7445 158.793Z" fill="#263238"/>
<path d="M75.0748 152.044C75.0697 152.03 75.0602 152.017 75.0477 152.008C75.0351 151.999 75.0201 151.995 75.0047 151.995C74.9893 151.995 74.9743 151.999 74.9618 152.008C74.9492 152.017 74.9398 152.03 74.9347 152.044C75.0501 153.692 75.1077 155.406 75.289 157.087C75.289 157.107 75.2968 157.126 75.3107 157.14C75.3246 157.154 75.3435 157.162 75.3632 157.162C75.3828 157.162 75.4017 157.154 75.4156 157.14C75.4295 157.126 75.4373 157.107 75.4373 157.087C75.3797 155.406 75.1984 153.734 75.0748 152.044Z" fill="#263238"/>
<path d="M90.2611 157.681C88.2835 158.505 86.2812 159.238 84.3036 160.062C84.2541 160.062 84.3036 160.177 84.3036 160.153C86.3059 159.403 88.2753 158.587 90.2694 157.813C90.3847 157.78 90.3435 157.648 90.2611 157.681Z" fill="#263238"/>
<path d="M93.2769 144.076C91.3372 144.966 89.4548 145.976 87.6407 147.1C87.6276 147.115 87.6196 147.133 87.6178 147.153C87.6159 147.172 87.6205 147.192 87.6307 147.208C87.6409 147.225 87.6562 147.238 87.6743 147.245C87.6925 147.253 87.7125 147.254 87.7314 147.249C89.5689 146.169 91.4394 145.139 93.3428 144.192C93.4252 144.2 93.3511 144.043 93.2769 144.076Z" fill="#263238"/>
<path d="M92.7908 239.281H47.1V287.444H92.7908V239.281Z" fill="#455A64"/>
<path d="M46.3007 256.33H43.9605V338.829H46.3007V256.33Z" fill="#263238"/>
<path d="M95.6995 256.33H93.3593V338.829H95.6995V256.33Z" fill="#263238"/>
<path d="M72.2402 256.33H69.9V338.829H72.2402V256.33Z" fill="#263238"/>
<path d="M94.5294 284.362H45.1306V291.029H94.5294V284.362Z" fill="#263238"/>
<path d="M276.559 311.884C276.559 311.884 276.559 347.374 276.559 347.398C276.559 354.18 276.502 360.129 276.164 363.203C276.168 363.21 276.17 363.219 276.17 363.227C276.17 363.236 276.168 363.245 276.164 363.252C276.164 363.981 275.995 364.701 275.669 365.353L275.628 365.395C273.618 366.771 219.398 368.633 217.487 368.056C215.575 367.479 217.05 361.991 219.135 360.236C221.219 358.481 241.63 348.494 241.63 348.494L241.968 313.021L276.559 311.884Z" fill="#AD6359"/>
<path d="M276.551 340.106V347.398C276.551 354.18 276.493 360.129 276.155 363.203C276.16 363.21 276.162 363.219 276.162 363.227C276.162 363.236 276.16 363.245 276.155 363.252C276.07 363.969 275.904 364.674 275.661 365.353L275.62 365.395C273.609 366.771 219.39 368.633 217.478 368.056C215.567 367.479 217.042 361.991 219.126 360.236C221.211 358.481 241.622 348.494 241.622 348.494L241.523 341.078L276.551 340.106Z" fill="#C7C7C7"/>
<path d="M217.478 368.056C219.39 368.633 273.609 366.779 275.628 365.395C276.403 364.884 276.592 356.965 276.551 347.398V347.094L241.556 347.918L241.597 348.511C241.597 348.511 221.162 358.506 219.102 360.261C217.042 362.016 215.559 367.504 217.478 368.056Z" fill="#263238"/>
<path d="M218.014 365.938C227.152 365.395 264.034 364.093 273.098 364.29C273.173 364.29 273.173 364.34 273.098 364.348C264.034 365.073 227.169 366.087 218.022 366.12C217.833 366.087 217.824 365.947 218.014 365.938Z" fill="#455A64"/>
<path d="M238.647 348.7C242.223 347.876 246.64 348.305 249.474 350.777C249.59 350.876 249.474 351.024 249.334 350.991C245.858 350.001 242.287 349.385 238.68 349.154C238.626 349.148 238.576 349.124 238.538 349.085C238.5 349.046 238.477 348.995 238.473 348.941C238.469 348.887 238.485 348.833 238.516 348.789C238.548 348.745 238.594 348.714 238.647 348.7Z" fill="#455A64"/>
<path d="M236.109 350.357C239.677 349.533 244.102 349.961 246.936 352.433C247.044 352.524 246.936 352.68 246.788 352.647C243.312 351.656 239.741 351.04 236.134 350.81C236.08 350.803 236.031 350.778 235.994 350.738C235.957 350.699 235.936 350.647 235.933 350.593C235.93 350.54 235.946 350.486 235.978 350.443C236.01 350.4 236.057 350.369 236.109 350.357Z" fill="#455A64"/>
<path d="M233.563 352.005C237.139 351.181 241.556 351.617 244.39 354.081C244.506 354.18 244.39 354.337 244.25 354.304C240.775 353.311 237.203 352.692 233.596 352.458C233.542 352.452 233.492 352.428 233.454 352.389C233.416 352.35 233.393 352.299 233.389 352.245C233.385 352.191 233.401 352.137 233.432 352.093C233.464 352.049 233.51 352.018 233.563 352.005Z" fill="#455A64"/>
<path d="M279.666 180.316L279.633 182.664L278.306 286.373L278.298 286.768L277.515 348.89L239.562 348.132L246.887 180.44L246.986 178.198L247.357 158.744H279.41L279.666 180.316Z" fill="#455A64"/>
<path d="M241.152 341.803C247.077 341.746 245.371 341.68 251.295 341.696C254.196 341.696 273.255 341.771 275.958 342.248C276.015 342.248 276.015 342.364 275.958 342.372C273.239 342.784 254.188 342.372 251.287 342.323C245.363 342.199 247.068 342.166 241.144 341.977C241.125 341.97 241.11 341.958 241.099 341.942C241.088 341.925 241.083 341.906 241.084 341.887C241.085 341.868 241.092 341.849 241.104 341.834C241.116 341.819 241.133 341.808 241.152 341.803Z" fill="#263238"/>
<path d="M258.151 191.226C258.151 191.208 258.144 191.191 258.132 191.179C258.119 191.167 258.103 191.16 258.085 191.16C258.068 191.16 258.051 191.167 258.039 191.179C258.026 191.191 258.019 191.208 258.019 191.226C258.019 201.155 257.615 206.717 257.376 216.638C257.138 226.559 256.849 236.48 256.552 246.392C256.017 266.226 255.218 286.043 254.484 305.869C254.072 316.987 253.559 328.1 252.943 339.208C252.943 339.223 252.949 339.238 252.96 339.249C252.971 339.259 252.986 339.266 253.001 339.266C253.016 339.266 253.031 339.259 253.042 339.249C253.053 339.238 253.059 339.223 253.059 339.208C254.501 319.432 255.877 299.59 256.668 279.756C257.459 259.923 258.019 240.097 258.11 220.263C258.192 209.131 258.126 202.358 258.151 191.226Z" fill="#263238"/>
<path d="M279.658 180.316L278.306 286.373L252.869 158.744H279.402L279.658 180.316Z" fill="#263238"/>
<path d="M319.127 309.964C319.127 309.964 323.906 345.124 323.906 345.149C324.862 351.873 325.554 357.781 325.653 360.871C325.653 360.871 325.653 360.871 325.653 360.92C325.749 361.64 325.682 362.373 325.455 363.063C325.455 363.079 325.455 363.096 325.455 363.112C323.643 364.76 270.165 373.907 268.196 373.593C266.226 373.28 266.951 367.644 268.739 365.625C270.528 363.607 289.447 350.958 289.447 350.958L284.997 315.765L319.127 309.964Z" fill="#AD6359"/>
<path d="M322.926 337.931C322.926 337.931 323.906 345.124 323.906 345.149C324.862 351.873 325.554 357.781 325.653 360.871C325.653 360.871 325.653 360.871 325.653 360.921C325.669 361.64 325.602 362.359 325.455 363.063C325.455 363.079 325.455 363.096 325.455 363.112C323.643 364.76 270.165 373.907 268.196 373.594C266.226 373.281 266.951 367.644 268.739 365.626C270.528 363.607 289.447 350.958 289.447 350.958L288.318 343.608L322.926 337.931Z" fill="#C7C7C7"/>
<path d="M268.163 373.593C270.14 373.907 323.61 364.752 325.422 363.112C326.123 362.494 325.241 354.633 323.906 345.149L323.857 344.852L289.298 350.373L289.414 350.958C289.414 350.958 270.511 363.615 268.707 365.634C266.902 367.652 266.152 373.272 268.163 373.593Z" fill="#263238"/>
<path d="M268.41 371.418C277.391 369.655 313.73 363.384 322.794 362.354C322.868 362.354 322.876 362.395 322.794 362.412C313.936 364.356 277.523 370.33 268.459 371.599C268.245 371.624 268.22 371.459 268.41 371.418Z" fill="#455A64"/>
<path d="M286.53 351.56C289.966 350.291 294.399 350.093 297.538 352.153C297.662 352.235 297.538 352.408 297.423 352.392C293.846 351.876 290.225 351.746 286.62 352.005C286.566 352.006 286.513 351.988 286.471 351.954C286.429 351.921 286.4 351.873 286.389 351.82C286.378 351.767 286.386 351.712 286.412 351.664C286.438 351.617 286.479 351.58 286.53 351.56Z" fill="#455A64"/>
<path d="M284.231 353.537C287.667 352.268 292.1 352.07 295.239 354.139C295.363 354.213 295.239 354.386 295.124 354.369C291.547 353.857 287.926 353.727 284.321 353.982C284.267 353.983 284.214 353.966 284.172 353.932C284.13 353.898 284.101 353.851 284.09 353.798C284.079 353.745 284.087 353.689 284.113 353.642C284.139 353.594 284.18 353.557 284.231 353.537Z" fill="#455A64"/>
<path d="M281.94 355.523C285.376 354.254 289.801 354.056 292.949 356.116C293.072 356.199 292.949 356.372 292.833 356.355C289.257 355.835 285.635 355.705 282.031 355.968C281.976 355.969 281.924 355.951 281.881 355.918C281.839 355.884 281.81 355.836 281.799 355.783C281.789 355.73 281.797 355.675 281.822 355.628C281.848 355.58 281.89 355.543 281.94 355.523Z" fill="#455A64"/>
<path d="M250.62 158.711C250.76 159.37 253.001 169.769 255.325 178.701C257.014 185.227 258.753 190.962 259.75 191.555C260.879 192.223 266.383 194.662 268.229 195.428L276.658 276.04L288.054 350.678L325.315 344.91L298.799 181.56L294.481 158.711H250.62Z" fill="#455A64"/>
<path d="M288.277 343.188C294.127 342.248 292.397 342.43 298.296 341.54C301.164 341.111 320.017 338.318 322.761 338.392C322.819 338.392 322.835 338.491 322.761 338.507C320.141 339.331 301.238 341.803 298.362 342.166C292.487 342.924 294.168 342.644 288.285 343.344C288.271 343.337 288.259 343.326 288.25 343.313C288.241 343.3 288.236 343.284 288.236 343.268C288.235 343.253 288.238 343.237 288.245 343.223C288.252 343.208 288.263 343.196 288.277 343.188Z" fill="#263238"/>
<path d="M309.824 320.899C308.893 315.724 307.97 310.549 307.014 305.374C305.108 295.025 303.185 284.678 301.246 274.334C297.357 253.63 293.512 232.909 289.71 212.172C287.584 200.471 287.634 201.567 285.78 189.808C285.78 189.734 285.631 189.743 285.648 189.808C287.428 200.257 286.587 197.966 288.268 208.431C289.949 218.896 291.713 229.138 293.567 239.463C297.291 260.219 301.197 280.943 305.144 301.658C306.242 307.47 307.366 313.274 308.514 319.069C309.668 324.986 310.986 330.869 312.205 336.769C312.205 336.901 312.444 336.892 312.42 336.769C311.563 331.487 310.788 326.18 309.824 320.899Z" fill="#263238"/>
<path d="M299.582 190.583C298.593 190.328 297.53 190.245 296.525 190.089C295.701 189.957 294.877 189.808 294.053 189.635C292.502 189.358 291.033 188.739 289.751 187.823C288.351 186.735 287.634 185.079 286.958 183.488C286.552 182.549 286.14 181.61 285.722 180.67L285.104 179.311C284.816 178.777 284.56 178.227 284.338 177.663C284.338 177.58 284.181 177.663 284.214 177.663C284.354 178.048 284.47 178.441 284.56 178.841C284.7 179.294 284.824 179.747 284.964 180.201C285.219 181.025 285.467 181.849 285.73 182.673C286.131 184.159 286.71 185.592 287.453 186.941C288.952 189.314 291.622 190.278 294.292 190.616C295.058 190.707 295.833 190.764 296.607 190.805C297.578 190.892 298.554 190.892 299.524 190.805C299.547 190.799 299.567 190.788 299.584 190.771C299.6 190.754 299.612 190.734 299.618 190.711C299.624 190.688 299.624 190.665 299.617 190.642C299.611 190.62 299.599 190.599 299.582 190.583Z" fill="#263238"/>
<path d="M256.824 190.13C260.754 191.557 264.551 193.327 268.171 195.42C268.201 195.434 268.225 195.46 268.237 195.492C268.248 195.523 268.247 195.558 268.233 195.589C268.218 195.619 268.193 195.643 268.161 195.655C268.129 195.666 268.094 195.665 268.064 195.651C264.24 194.003 260.343 192.437 256.618 190.591C256.567 190.558 256.529 190.508 256.511 190.449C256.493 190.391 256.497 190.328 256.522 190.272C256.547 190.216 256.592 190.171 256.647 190.145C256.702 190.119 256.765 190.113 256.824 190.13Z" fill="#263238"/>
<path d="M255.671 163.976C255.671 163.844 255.918 163.811 255.918 163.976C255.915 168.242 256.13 172.504 256.561 176.748C256.734 178.717 258.316 189.594 261.735 188.803C262.304 188.671 262.559 188.103 262.683 187.246C262.671 186.119 262.518 184.998 262.23 183.909C261.851 181.626 261.546 179.344 261.356 177.045C260.954 172.761 261.001 168.447 261.496 164.174C261.496 164.145 261.508 164.118 261.528 164.098C261.548 164.078 261.575 164.067 261.604 164.067C261.632 164.067 261.659 164.078 261.679 164.098C261.699 164.118 261.711 164.145 261.711 164.174C261.615 170.116 261.962 176.057 262.749 181.947C263.177 184.774 264.603 189.034 261.645 189.471C258.687 189.907 256.701 182.78 256.314 180.827C255.37 175.262 255.154 169.597 255.671 163.976Z" fill="#263238"/>
<path d="M261.645 189.05C261.946 189.787 262.202 190.541 262.411 191.308C262.631 191.901 262.74 192.53 262.733 193.162C262.728 193.188 262.715 193.212 262.697 193.23C262.679 193.249 262.655 193.262 262.63 193.267C262.604 193.272 262.577 193.27 262.553 193.26C262.529 193.25 262.508 193.233 262.494 193.212C262.126 192.657 261.848 192.048 261.67 191.407C261.406 190.715 261.134 190.014 260.895 189.314C260.86 189.215 260.866 189.105 260.912 189.01C260.957 188.915 261.039 188.842 261.138 188.807C261.238 188.772 261.347 188.778 261.442 188.824C261.537 188.869 261.61 188.951 261.645 189.05Z" fill="#263238"/>
<path d="M299.186 183.958C294.671 183.661 246.986 178.19 246.986 178.19L247.357 158.735H250.653H294.514L298.832 181.585L299.186 183.958Z" fill="#263238"/>
<path d="M265.79 114.058C260.335 131.131 251.098 148.757 248.428 152.226C241.267 161.553 219.753 170.741 213.185 171.928C210.343 172.438 203.528 154.104 205.291 151.583C207.055 149.062 233.794 138.844 235.104 137.484C236.01 136.537 247.291 122.001 254.88 113.234C264.364 102.333 267.223 109.592 265.79 114.058Z" fill="#AD6359"/>
<path d="M211.002 148.023L221.565 169.447C221.565 169.447 244.019 159.716 249.367 152.77C254.715 145.823 264.405 122.282 265.847 114.783C267.289 107.285 264.801 101.929 254.756 112.888C244.712 123.847 236.389 134.765 234.593 136.595C232.797 138.424 211.002 148.023 211.002 148.023Z" fill="#EBEBEB"/>
<path d="M211.892 146.936L224.548 169.134C224.548 169.134 244.324 159.683 249.367 153.478C254.41 147.274 262.724 128.223 265.328 117.939C267.932 107.656 266.408 100.363 254.764 112.946C243.121 125.528 236.538 134.666 234.164 136.718C233.036 137.608 211.892 146.936 211.892 146.936Z" fill="#37474F"/>
<path d="M217.223 148.987C217.865 148.987 218.385 148.467 218.385 147.826C218.385 147.184 217.865 146.664 217.223 146.664C216.581 146.664 216.061 147.184 216.061 147.826C216.061 148.467 216.581 148.987 217.223 148.987Z" fill="#263238"/>
<path d="M222.703 146.466C223.344 146.466 223.864 145.946 223.864 145.304C223.864 144.663 223.344 144.142 222.703 144.142C222.061 144.142 221.541 144.663 221.541 145.304C221.541 145.946 222.061 146.466 222.703 146.466Z" fill="#263238"/>
<path d="M265.328 117.906C262.724 128.19 254.418 147.208 249.367 153.445C247.208 156.107 242.38 159.353 237.543 162.204L263.029 106.387C266.976 105.315 267.1 110.919 265.328 117.906Z" fill="#263238"/>
<path d="M301.675 175.792C301.543 175.94 244.539 176.114 243.995 175.528C243.261 174.704 256.14 112.904 261.991 105.315C263.235 103.667 267.363 103.231 270.874 103.667C271.789 103.771 272.694 103.955 273.576 104.22H273.675C274.387 104.43 275.059 104.758 275.661 105.192C285.417 112.987 293.641 140.237 295.561 148.419C298.774 161.924 302.144 175.257 301.675 175.792Z" fill="#EBEBEB"/>
<path d="M275.496 104.467C275.496 104.467 270.857 129.764 270.05 136.339C269.242 142.915 270.429 177.646 270.429 177.646L306.223 180.291C306.223 180.291 298.486 157.302 298.395 155.843C298.395 155.843 291.968 128.305 285.945 116.802C283.314 112.039 279.762 107.845 275.496 104.467Z" fill="#37474F"/>
<path d="M306.223 180.291L289.99 179.088L278.405 107.013V107.062L285.673 116.374C285.755 116.522 285.837 116.67 285.912 116.818C291.935 128.354 298.362 155.86 298.362 155.86C298.486 157.302 306.223 180.291 306.223 180.291Z" fill="#263238"/>
<path d="M261.645 105.019C261.645 105.019 257.846 130.637 257.434 132.755C257.022 134.872 251.271 176.649 251.271 176.649L242.314 176.929L246.986 157.829C246.986 157.829 257.376 110.474 261.645 105.019Z" fill="#37474F"/>
<path d="M266.877 119.076L264.339 114.132L261.06 117.708L261.867 121.268L265.097 121.688L266.877 119.076Z" fill="#263238"/>
<path d="M265.097 121.688L266.647 158.06L259.832 170.09L256.289 156.552L261.867 121.268L265.097 121.688Z" fill="#263238"/>
<path d="M263.669 222.212L263.625 264.928L334.126 265.002L334.171 222.286L263.669 222.212Z" fill="#1C1C1C"/>
<path opacity="0.1" d="M263.666 222.217L263.645 242.331L334.146 242.405L334.167 222.291L263.666 222.217Z" fill="black"/>
<path d="M261.986 235.856L335.825 235.934L335.846 216.001L262.007 215.924L261.986 235.856Z" fill="#1C1C1C"/>
<path d="M283.39 204.583L283.374 215.946L288.721 215.954L288.73 209.486L309.124 209.51L309.115 215.979H314.463L314.471 204.607L283.39 204.583Z" fill="#263238"/>
<path d="M320.869 240.671L325.681 240.676L325.691 231.15L320.879 231.145L320.869 240.671Z" fill="#263238"/>
<path d="M272.113 240.631L276.925 240.636L276.935 231.111L272.123 231.106L272.113 240.631Z" fill="#263238"/>
<path d="M283.374 112.064C299.277 126.492 309.371 147.101 310.055 151.262C311.703 161.323 313.788 178.956 313.433 186.694C313.301 189.561 291.572 186.084 291.614 183.019C291.754 173.427 290.477 152.333 290.419 151.962C290.032 149.383 285.302 137.789 280.531 125.215C275.76 112.641 276.683 106.008 283.374 112.064Z" fill="#AD6359"/>
<path d="M289.323 213.078C289.957 213.367 290.664 213.454 291.349 213.329C292.033 213.204 292.664 212.872 293.155 212.378C293.775 213.385 294.728 214.143 295.849 214.52C297.851 215.097 299.631 212.205 299.631 212.205C300.494 213.116 301.611 213.747 302.837 214.018C304.806 214.372 307.022 211.711 307.022 211.711C308.275 212.105 309.628 212.041 310.838 211.529C312.889 210.565 314.628 204.682 315.056 201.295C315.485 197.909 313.516 187.897 313.334 185.952L291.614 183.035C291.614 183.035 285.384 197.686 285.45 201.74C285.508 205.176 286.933 211.892 289.323 213.078Z" fill="#AD6359"/>
<path d="M292.825 212.18C291.894 208.563 292.083 204.863 292.067 201.172C292.067 201.154 292.074 201.137 292.086 201.125C292.099 201.113 292.115 201.106 292.133 201.106C292.15 201.106 292.167 201.113 292.179 201.125C292.192 201.137 292.199 201.154 292.199 201.172C292.199 204.847 292.874 208.481 293.023 212.156C293.026 212.182 293.019 212.208 293.002 212.229C292.986 212.25 292.962 212.264 292.936 212.267C292.91 212.27 292.884 212.263 292.863 212.247C292.842 212.23 292.828 212.206 292.825 212.18Z" fill="#263238"/>
<path d="M299.359 212.098C299.226 211.255 299.204 210.399 299.293 209.551C299.293 208.653 299.392 207.747 299.466 206.849C299.609 205.047 299.793 203.251 300.019 201.46C300.019 201.377 300.15 201.377 300.142 201.46C300.01 203.256 299.903 205.052 299.837 206.849C299.837 207.755 299.788 208.653 299.771 209.551C299.807 210.404 299.752 211.257 299.607 212.098C299.597 212.123 299.58 212.145 299.558 212.16C299.536 212.175 299.51 212.184 299.483 212.184C299.456 212.184 299.43 212.175 299.408 212.16C299.386 212.145 299.369 212.123 299.359 212.098Z" fill="#263238"/>
<path d="M307.023 211.636C306.917 210.872 306.939 210.095 307.088 209.337C307.171 208.513 307.245 207.689 307.319 206.865C307.467 205.217 307.608 203.569 307.69 201.921C307.69 201.839 307.822 201.839 307.822 201.921C307.739 203.569 307.682 205.267 307.591 206.939L307.443 209.411C307.46 210.164 307.346 210.914 307.105 211.628C307.101 211.635 307.096 211.641 307.089 211.646C307.082 211.651 307.074 211.654 307.066 211.654C307.058 211.655 307.05 211.654 307.042 211.651C307.034 211.648 307.028 211.643 307.023 211.636Z" fill="#263238"/>
<path d="M290.551 183.134L314.636 184.436C314.636 184.436 312.856 158.068 310.945 150.743C309.033 143.417 292.718 119.002 283.085 110.152C274.021 101.822 274.021 108.752 277.457 118.516C280.893 128.28 289.397 151.88 289.686 153.602C289.974 155.324 290.551 183.134 290.551 183.134Z" fill="#37474F"/>
<path d="M291.63 178.272C292.553 178.19 293.484 178.272 294.407 178.272C295.33 178.272 296.253 178.314 297.176 178.355C298.956 178.429 300.735 178.536 302.515 178.651L307.846 179.006C309.684 179.129 311.563 179.162 313.384 179.434C313.396 179.439 313.407 179.447 313.415 179.458C313.423 179.469 313.427 179.483 313.427 179.496C313.427 179.509 313.423 179.523 313.415 179.534C313.407 179.545 313.396 179.553 313.384 179.558C311.546 179.632 309.676 179.467 307.838 179.401L302.4 179.179C300.587 179.096 298.774 179.006 296.961 178.89C296.072 178.841 295.182 178.775 294.3 178.676C293.418 178.577 292.495 178.569 291.622 178.396C291.54 178.38 291.564 178.281 291.63 178.272Z" fill="#263238"/>
<path d="M265.196 113.473C266.136 113.432 272.373 108.529 274.26 104.755C274.392 104.491 273.906 101.805 273.477 98.5175C273.222 96.5234 272.983 94.2904 272.917 92.2386C272.917 91.8184 271.5 92.6424 271.5 92.6424L268.863 93.3675L260.162 95.79C260.981 98.3307 261.485 100.963 261.661 103.626C261.671 103.902 261.651 104.178 261.604 104.45C261.607 104.497 261.607 104.544 261.604 104.59C261.414 106.214 263.68 113.531 265.196 113.473Z" fill="#AD6359"/>
<path d="M261.637 104.467C261.64 104.513 261.64 104.56 261.637 104.607C262.078 104.649 262.522 104.649 262.963 104.607C271.615 104.129 272.332 93.0708 272.332 93.0708L268.912 93.3345L260.211 95.757C261.031 98.2977 261.534 100.93 261.711 103.593C261.718 103.886 261.694 104.179 261.637 104.467Z" fill="#263238"/>
<path d="M272.596 74.8522C274.672 79.1452 274.326 92.5435 271.566 95.9466C267.578 100.891 260.03 102.464 255.58 97.4298C251.271 92.56 252.037 75.1076 255.209 71.8858C259.881 67.2055 269.53 68.5074 272.596 74.8522Z" fill="#AD6359"/>
<path d="M261.109 84.6248C261.109 84.6248 261.175 84.6248 261.175 84.7072C261.126 85.6054 261.225 86.6519 261.999 86.965C261.999 86.965 261.999 87.0227 261.999 87.0144C261.035 86.8579 260.92 85.4735 261.109 84.6248Z" fill="#263238"/>
<path d="M261.933 83.702C263.384 83.6196 263.441 86.5365 262.09 86.6107C260.738 86.6848 260.714 83.7679 261.933 83.702Z" fill="#263238"/>
<path d="M255.885 84.872C255.885 84.872 255.819 84.9132 255.819 84.9544C255.86 85.8526 255.761 86.899 254.946 87.2122V87.2616C255.951 87.0968 256.075 85.696 255.885 84.872Z" fill="#263238"/>
<path d="M255.061 83.9327C253.611 83.8503 253.545 86.7672 254.896 86.8414C256.248 86.9156 256.264 84.048 255.061 83.9327Z" fill="#263238"/>
<path d="M263.062 82.3506C262.658 82.2517 262.304 82.1034 261.925 81.9716C261.504 81.8968 261.121 81.6819 260.837 81.3618C260.767 81.2461 260.737 81.1098 260.754 80.9752C260.77 80.8406 260.831 80.7155 260.928 80.6202C261.143 80.455 261.399 80.3503 261.668 80.317C261.938 80.2837 262.211 80.3229 262.461 80.4307C263 80.5733 263.467 80.911 263.771 81.3783C263.834 81.4887 263.864 81.615 263.857 81.7419C263.85 81.8689 263.806 81.9912 263.731 82.0939C263.656 82.1967 263.553 82.2756 263.435 82.3212C263.316 82.3667 263.187 82.3769 263.062 82.3506Z" fill="#263238"/>
<path d="M253.907 82.4906C254.298 82.4048 254.683 82.2976 255.061 82.1693C255.482 82.1106 255.872 81.9169 256.173 81.6172C256.25 81.5046 256.287 81.3697 256.278 81.2338C256.269 81.0979 256.215 80.9689 256.124 80.8674C255.917 80.6906 255.666 80.5729 255.398 80.5265C255.13 80.4801 254.854 80.5067 254.6 80.6037C254.055 80.7189 253.573 81.0333 253.248 81.4854C253.18 81.5924 253.144 81.7169 253.145 81.8439C253.146 81.9709 253.183 82.0949 253.253 82.201C253.323 82.3072 253.421 82.391 253.537 82.4424C253.654 82.4938 253.782 82.5105 253.907 82.4906Z" fill="#263238"/>
<path d="M261.093 90.3022C260.87 90.6632 260.575 90.9741 260.226 91.2152C259.877 91.4563 259.482 91.6224 259.066 91.703C258.703 91.7815 258.331 91.8064 257.962 91.7771C257.89 91.7857 257.818 91.7857 257.747 91.7771H257.55C257.502 91.7684 257.458 91.7443 257.426 91.7087C257.393 91.673 257.373 91.6276 257.368 91.5794C257.364 91.5493 257.364 91.5188 257.368 91.4887V91.4063C257.368 90.7142 257.368 89.6595 257.368 89.6595C257.113 89.7913 255.827 90.3928 255.844 90.0303C255.871 86.8969 256.216 83.7744 256.874 80.7108C256.874 80.689 256.883 80.668 256.898 80.6526C256.913 80.6371 256.934 80.6284 256.956 80.6284C256.978 80.6284 256.999 80.6371 257.015 80.6526C257.03 80.668 257.039 80.689 257.039 80.7108C257.039 83.6113 256.511 86.4788 256.462 89.3958C256.918 89.1726 257.404 89.0145 257.904 88.9261C258.003 88.9261 257.772 90.9696 257.813 91.2827C258.383 91.3297 258.956 91.2613 259.498 91.0815C260.04 90.9016 260.541 90.6142 260.969 90.2363C261.076 90.1703 261.142 90.228 261.093 90.3022Z" fill="#263238"/>
<path d="M258.365 91.4146C258.752 91.9051 259.261 92.2858 259.84 92.5187C260.16 92.6379 260.508 92.6552 260.837 92.5682C261.562 92.3622 261.562 91.7442 261.422 91.1344C261.341 90.8478 261.228 90.5713 261.085 90.3104C260.318 90.958 259.366 91.3447 258.365 91.4146Z" fill="#263238"/>
<path d="M259.84 92.5187C260.16 92.6379 260.508 92.6552 260.837 92.5682C261.562 92.3622 261.562 91.7442 261.422 91.1344C261.042 91.1567 260.681 91.3049 260.394 91.5555C260.108 91.8062 259.913 92.1451 259.84 92.5187Z" fill="#FF9ABB"/>
<path d="M253.364 76.3683C253.833 75.2147 254.385 74.0529 255.069 73.8057C255.753 73.5585 256.239 75.2395 257.813 75.3136C259.931 75.4207 260.92 73.4596 263.878 73.1959C268.121 72.8169 270.058 76.3354 270.28 82.3671C270.47 87.7478 273.741 88.1927 273.741 88.1927C273.741 88.1927 275.488 76.2777 272.093 72.4049C268.698 68.5321 260.953 66.9418 255.86 70.7569C253.973 72.1989 253.364 76.3683 253.364 76.3683Z" fill="#263238"/>
<path d="M270.981 86.1245C270.981 86.1245 273.362 81.5019 275.422 82.2929C277.482 83.0839 276.09 89.5111 273.947 90.6565C273.683 90.8213 273.388 90.9309 273.08 90.9786C272.772 91.0264 272.458 91.0113 272.156 90.9343C271.854 90.8573 271.571 90.72 271.324 90.5306C271.077 90.3413 270.87 90.1038 270.717 89.8325L270.981 86.1245Z" fill="#AD6359"/>
<path d="M274.977 84.1304C274.977 84.1304 275.027 84.1716 274.977 84.1881C273.486 85.0121 272.851 86.6107 272.505 88.2092C272.575 88.0378 272.681 87.8837 272.816 87.7576C272.951 87.6314 273.112 87.5364 273.288 87.4791C273.464 87.4218 273.65 87.4036 273.834 87.4258C274.017 87.4481 274.194 87.5101 274.351 87.6077C274.392 87.6077 274.351 87.6984 274.351 87.6984C274.062 87.6469 273.763 87.6867 273.498 87.8122C273.232 87.9377 273.012 88.1426 272.868 88.3988C272.627 88.8268 272.433 89.28 272.291 89.7501C272.242 89.9067 271.97 89.8655 272.003 89.6924C271.656 87.6489 272.843 84.6248 274.977 84.1304Z" fill="#263238"/>
<path d="M261.595 104.78L264.702 112.41L274.128 102.769L276.815 105.851C276.815 105.851 267.602 121.128 267.545 120.461L264.397 113.918L259.89 118.483L260.228 107.038L261.595 104.78Z" fill="#EBEBEB"/>
<path d="M259.733 112.822C259.857 110.935 259.923 109.023 260.129 107.145C260.129 107.079 260.244 107.054 260.261 107.145C260.64 108.966 260.145 116.209 260.153 117.914C260.343 117.717 264.331 113.902 264.372 113.959C265.056 114.997 267.363 119.727 267.52 120.197C268.978 117.766 274.557 108.933 276.287 106.634C276.298 106.625 276.311 106.619 276.325 106.618C276.339 106.617 276.353 106.62 276.365 106.628C276.377 106.635 276.386 106.646 276.392 106.659C276.397 106.672 276.398 106.686 276.394 106.7C275.134 109.221 267.751 121.128 267.635 121.128C266.42 118.878 265.32 116.568 264.339 114.206C263.664 115.03 259.634 119.356 259.618 119.076C259.548 116.991 259.586 114.903 259.733 112.822Z" fill="#263238"/>
<path d="M155.159 112.641C165.525 133.101 176.056 182.318 177.036 188.902C177.704 193.376 154.179 197.422 154.179 194.324C154.179 190.352 149.432 143.895 149.886 125.536C150.133 115.409 153.017 108.414 155.159 112.641Z" fill="#EB9481"/>
<path d="M154.088 192.363C153.709 195.057 154.607 204.393 156.371 211.315C157.195 214.693 160.721 224.128 163.366 223.675C166.011 223.222 165.229 220.379 165.229 220.379C165.229 220.379 167.305 224.136 169.917 223.436C172.529 222.735 171.186 218.335 171.186 218.335C171.186 218.335 173.592 222.052 176.13 221.162C178.668 220.272 176.583 216.078 176.583 216.078C176.583 216.078 178.635 219.58 180.431 217.956C182.598 216.003 178.099 209.988 177.341 206.206C177.168 205.382 175.067 188.556 175.067 188.556L154.088 192.363Z" fill="#EB9481"/>
<path d="M176.616 216.02C173.32 211.587 172.645 209.074 172.233 203.66C172.227 203.641 172.215 203.625 172.2 203.614C172.184 203.602 172.165 203.596 172.146 203.596C172.127 203.596 172.108 203.602 172.092 203.614C172.077 203.625 172.065 203.641 172.06 203.66C171.985 209.008 172.381 212.279 176.41 216.209C176.608 216.382 176.773 216.226 176.616 216.02Z" fill="#263238"/>
<path d="M171.252 218.574C168.228 213.671 167.47 210.952 166.613 205.308C166.613 205.225 166.465 205.234 166.473 205.308C166.844 210.919 167.297 214.174 170.98 218.681C171.145 218.896 171.392 218.797 171.252 218.574Z" fill="#263238"/>
<path d="M164.99 220.008C162.41 215.064 161.455 212.106 161.331 206.519C161.325 206.497 161.311 206.477 161.293 206.463C161.274 206.449 161.251 206.441 161.228 206.441C161.205 206.441 161.182 206.449 161.164 206.463C161.145 206.477 161.131 206.497 161.125 206.519C160.697 212.229 161.867 215.913 164.833 220.082C165.039 220.321 165.154 220.288 164.99 220.008Z" fill="#263238"/>
<path d="M176.888 187.732C176.888 187.732 180.679 193.5 181.783 196.442C182.887 199.383 183.01 211.719 180.341 211.9C176.896 212.131 175.397 205.003 175.15 201.419C175.15 201.419 167.173 201.954 165.014 197.068C162.855 192.182 176.888 187.732 176.888 187.732Z" fill="#EB9481"/>
<path d="M179.377 211.644C176.081 209.593 176.031 204.863 175.512 201.402C175.507 201.351 175.489 201.301 175.461 201.258C175.432 201.215 175.393 201.179 175.348 201.154C175.303 201.129 175.252 201.115 175.2 201.114C175.148 201.113 175.097 201.124 175.051 201.147C171.697 201.147 166.959 200.174 164.932 197.274C164.928 197.263 164.921 197.253 164.912 197.244C164.904 197.236 164.894 197.229 164.882 197.226C164.871 197.222 164.859 197.22 164.847 197.221C164.835 197.222 164.824 197.226 164.813 197.232C164.803 197.238 164.794 197.247 164.787 197.256C164.78 197.266 164.776 197.278 164.774 197.289C164.772 197.301 164.772 197.313 164.775 197.325C164.779 197.336 164.784 197.347 164.792 197.356C166.539 200.768 171.12 202.103 174.795 201.864C175.273 205.415 175.529 210.161 179.352 211.677C179.377 211.686 179.393 211.661 179.377 211.644Z" fill="#263238"/>
<path d="M179.294 186.348L152.572 190.468C152.572 190.468 148.312 140.855 148.155 124.202C147.999 107.549 153.981 103.47 160.4 120.502C166.819 137.534 179.294 186.348 179.294 186.348Z" fill="#1C1C1C"/>
<path d="M152.44 186.29C163.375 183.818 175.232 182.903 177.292 182.598C177.391 182.598 177.399 182.739 177.292 182.747C175.265 182.945 161.817 185.474 152.44 186.455C152.366 186.463 152.358 186.306 152.44 186.29Z" fill="#263238"/>
<path d="M211.669 368.015C209.815 368.616 155.472 367.801 153.478 366.49C153.239 366.342 153.206 361.431 153.272 354.699L150.627 314.71L185.013 314.809L187.732 349.417C187.732 349.417 195.445 352.977 201.806 356.092C204.589 357.356 207.294 358.787 209.906 360.376C211.958 362.09 213.523 367.422 211.669 368.015Z" fill="#EB9481"/>
<path d="M211.669 368.015C209.815 368.616 155.472 367.801 153.478 366.491C153.239 366.342 153.206 361.431 153.272 354.699C166.695 357.69 202.49 362.535 203.536 359.726C203.957 358.597 203.1 357.319 201.822 356.141C204.606 357.406 207.311 358.837 209.922 360.426C211.958 362.09 213.523 367.422 211.669 368.015Z" fill="#263238"/>
<path d="M136.108 169.167C136.108 169.167 145.848 272.513 146.062 273.766C146.062 273.931 146.169 275.842 146.26 278.949C146.804 295.997 148.139 349.162 148.139 349.162H188.993C188.993 349.162 186.331 286.192 184.799 271.508C182.846 252.762 170.84 169.167 170.84 169.167H136.108Z" fill="#37474F"/>
<path d="M150.932 277.26C149.674 255.803 147.782 234.379 145.255 212.988C143.821 200.957 142.091 188.968 140.377 176.971C140.377 176.863 140.195 176.872 140.212 176.971C143.376 198.32 145.609 219.819 147.537 241.333C149.465 262.848 150.833 284.313 151.657 305.852C152.16 318.048 152.539 330.259 152.926 342.463C152.936 342.515 152.964 342.563 153.006 342.597C153.047 342.631 153.099 342.65 153.153 342.65C153.207 342.65 153.258 342.631 153.3 342.597C153.341 342.563 153.369 342.515 153.379 342.463C152.836 320.742 152.209 298.988 150.932 277.26Z" fill="#263238"/>
<path d="M186.414 342.578C185.342 342.438 184.181 342.479 183.118 342.446C181.898 342.446 180.646 342.389 179.443 342.347C177.078 342.257 174.705 342.191 172.34 342.158C167.569 342.075 162.79 342.108 158.027 342.257L154.088 342.397C152.687 342.446 151.286 342.578 149.886 342.57C149.787 342.57 149.787 342.693 149.886 342.693C152.284 342.693 154.714 342.899 157.12 342.99C159.526 343.081 161.85 343.114 164.215 343.147C168.986 343.213 173.773 343.147 178.536 342.998C179.846 342.949 181.156 342.932 182.467 342.891L184.576 342.784C185.202 342.784 185.82 342.784 186.447 342.726C186.529 342.726 186.521 342.595 186.414 342.578Z" fill="#263238"/>
<path d="M165.624 169.167L146.96 303.776C146.697 293.74 146.433 284.461 146.26 278.949C146.169 275.842 146.095 273.931 146.062 273.766C145.832 272.513 136.108 169.167 136.108 169.167H165.624Z" fill="#263238"/>
<path d="M143.228 375.184C141.283 375.027 91.4311 353.372 90.0963 351.395C89.9315 351.172 91.7443 346.624 94.4387 340.436L105.431 301.708L137.237 314.471L128.264 348.857C128.264 348.857 134.032 355.111 138.696 360.393C140.779 362.635 142.727 364.998 144.53 367.471C145.774 369.819 145.164 375.349 143.228 375.184Z" fill="#EB9481"/>
<path d="M143.228 375.184C141.283 375.027 91.4311 353.372 90.0963 351.395C89.9315 351.172 91.7443 346.624 94.4387 340.436C105.686 348.363 136.858 366.589 138.935 364.398C139.759 363.524 139.454 362.008 138.729 360.426C140.812 362.668 142.76 365.031 144.563 367.504C145.774 369.82 145.164 375.349 143.228 375.184Z" fill="#263238"/>
<path d="M90.8625 336.447L130.719 348.807C130.719 348.807 150.182 280.539 151.674 264.504C153.149 248.609 154.574 216.135 155.209 192.577C155.209 192.577 161.867 188.638 163.556 186.488C165.245 184.337 166.761 176.6 170.09 169.184H121.326C109.674 191.819 118.442 201.888 118.442 206.824C118.442 230.654 114.841 262.287 113.696 266.976C111.306 276.749 90.8625 336.447 90.8625 336.447Z" fill="#37474F"/>
<path d="M130.629 340.09C129.632 339.678 128.503 339.422 127.465 339.101C126.286 338.746 125.1 338.417 123.93 338.054C121.672 337.354 119.398 336.686 117.123 336.044C112.537 334.736 107.917 333.533 103.264 332.435L99.424 331.553C98.0644 331.24 96.6718 331.001 95.304 330.638C95.1968 330.638 95.1721 330.729 95.304 330.762C97.6276 331.372 99.9184 332.204 102.217 332.913C104.516 333.621 106.758 334.256 109.032 334.907C113.621 336.2 118.252 337.379 122.9 338.458C124.185 338.746 125.454 339.068 126.731 339.373L128.783 339.826C129.393 339.966 129.986 340.164 130.604 340.254C130.626 340.258 130.648 340.252 130.666 340.239C130.684 340.226 130.696 340.206 130.699 340.184C130.702 340.162 130.697 340.14 130.683 340.122C130.67 340.105 130.651 340.093 130.629 340.09Z" fill="#263238"/>
<path d="M164.693 185.952C162.366 187.021 160.157 188.33 158.101 189.858C155.917 191.358 153.907 193.08 151.806 194.686C151.723 194.752 151.806 194.884 151.888 194.827C154.105 193.409 156.428 192.165 158.62 190.707C160.821 189.371 162.895 187.838 164.817 186.125C164.874 186.059 164.8 185.911 164.693 185.952Z" fill="#263238"/>
<path d="M164.998 172.216C164.718 173.732 164.347 175.24 164.017 176.748C163.688 178.256 163.482 179.607 163.111 181.008C162.804 182.363 162.115 183.601 161.125 184.576C160.573 185.095 159.955 185.548 159.362 186.026C159.049 186.282 158.702 186.521 158.373 186.784C158.414 186.578 158.447 186.381 158.48 186.166C158.587 185.598 158.686 185.021 158.777 184.444C158.991 183.167 159.197 181.882 159.395 180.604C159.782 178.083 160.136 175.537 160.664 173.04C160.669 173.018 160.666 172.995 160.654 172.976C160.642 172.956 160.624 172.942 160.602 172.937C160.58 172.932 160.557 172.935 160.537 172.947C160.518 172.958 160.504 172.977 160.499 172.999C159.873 175.471 159.18 177.943 158.637 180.415C158.365 181.634 157.409 187.666 157.368 188.094C157.326 188.523 157.285 188.976 157.269 189.421C157.215 189.873 157.215 190.329 157.269 190.781C157.269 190.888 157.434 190.871 157.475 190.781C157.659 190.362 157.789 189.922 157.862 189.471C157.969 189.042 158.068 188.605 158.142 188.169C158.142 188.012 158.192 187.847 158.216 187.682C158.81 187.32 159.362 186.858 159.922 186.446C160.482 186.034 161.125 185.622 161.694 185.112C162.741 184.227 163.497 183.047 163.861 181.725C164.227 180.301 164.467 178.848 164.578 177.382C164.767 175.669 164.907 173.946 165.146 172.241C165.171 172.216 165.014 172.134 164.998 172.216Z" fill="#263238"/>
<path d="M163.976 106.51C163.193 116.192 162.221 126.146 159.963 135.606C158.2 142.972 154.195 148.699 146.202 149.465C138.786 150.174 128.528 148.641 123.089 143.03C120.551 140.418 119.999 137.138 120.667 133.645C121.598 128.791 129.154 102.522 131.453 94.3151C132.854 89.3216 134.238 84.254 136.512 79.5572C141.275 69.6692 146.4 70.4932 147.109 70.3696C147.776 70.0565 151.929 68.8535 157.269 71.3914C158.674 72.0472 159.924 72.9926 160.938 74.1656C161.952 75.3385 162.706 76.7126 163.152 78.1976C165.987 87.0309 164.734 97.4463 163.976 106.51Z" fill="#263238"/>
<path d="M145.345 71.5809C138.811 73.6079 136.422 80.1175 134.114 85.9185C130.901 94.0019 127.819 102.143 125.133 110.424C123.847 114.404 122.661 118.417 121.565 122.455C120.535 126.327 119.192 130.423 118.912 134.436C118.45 141.028 124.053 144.884 129.755 146.623C129.812 146.641 129.874 146.636 129.927 146.609C129.981 146.582 130.021 146.535 130.04 146.478C130.058 146.422 130.053 146.36 130.026 146.306C129.999 146.253 129.952 146.213 129.895 146.194C126.665 145.082 123.411 143.722 121.276 140.896C118.533 137.303 119.472 133.233 120.403 129.179C122.002 122.273 123.987 115.475 126.171 108.752C128.355 102.028 130.876 95.3698 133.447 88.7695C135.919 82.4824 138.201 74.0776 145.329 71.688C145.436 71.688 145.411 71.5562 145.345 71.5809Z" fill="#263238"/>
<path d="M164.973 85.6054C164.495 80.4224 162.551 75.1653 157.466 72.9817C164.009 76.0964 164.652 83.8008 164.701 90.1621C164.756 96.8694 164.567 103.566 164.133 110.251C163.721 116.687 163.16 123.155 162.163 129.525C161.084 136.397 158.95 142.709 154.105 147.809C154.094 147.819 154.085 147.831 154.079 147.844C154.072 147.857 154.069 147.871 154.068 147.886C154.067 147.9 154.069 147.915 154.074 147.929C154.079 147.942 154.087 147.955 154.096 147.966C154.106 147.977 154.118 147.985 154.131 147.992C154.144 147.998 154.158 148.001 154.173 148.002C154.187 148.003 154.202 148.001 154.216 147.996C154.229 147.991 154.242 147.984 154.253 147.974C158.892 143.928 161.092 137.781 162.221 131.898C163.583 124.087 164.428 116.195 164.751 108.274C165.179 100.816 165.665 93.112 164.973 85.6054Z" fill="#263238"/>
<path d="M144.958 107.829C145.271 108.653 150.075 113.679 153.964 112.995C155.225 112.764 154.294 105.802 154.294 105.802L154.344 105.274L155.019 97.8582L145.848 93.524L144.538 92.9637C144.538 92.9637 144.48 95.0072 144.447 97.5451C144.447 97.6687 144.447 97.7841 144.447 97.9077C144.439 98.0476 144.439 98.188 144.447 98.3279C144.447 98.707 144.447 99.0942 144.447 99.4815C144.447 99.8688 144.447 100.058 144.447 100.363C144.447 100.668 144.447 100.981 144.447 101.286C144.469 103.476 144.64 105.662 144.958 107.829Z" fill="#EB9481"/>
<path d="M144.447 97.5451C145.436 99.4736 146.833 101.164 148.54 102.498C150.248 103.833 152.225 104.78 154.335 105.274L155.011 97.8582L145.848 93.524L144.538 92.9637C144.538 92.9637 144.48 95.0072 144.447 97.5451Z" fill="#263238"/>
<path d="M164.446 86.9403C165.484 99.9595 157.804 102.052 154.995 102.275C152.44 102.473 143.73 102.835 141.357 89.9809C138.984 77.1265 144.711 72.5121 150.52 71.7705C156.329 71.0289 163.416 73.9129 164.446 86.9403Z" fill="#EB9481"/>
<path d="M162.254 84.1716C161.957 84.1279 161.662 84.0674 161.372 83.9904C161.05 83.971 160.743 83.8465 160.499 83.636C160.437 83.5543 160.403 83.4544 160.403 83.3518C160.403 83.2491 160.437 83.1492 160.499 83.0675C160.646 82.9257 160.827 82.8252 161.026 82.776C161.224 82.7268 161.431 82.7307 161.628 82.7873C162.048 82.8402 162.431 83.0526 162.699 83.3806C162.757 83.4574 162.792 83.5496 162.799 83.6459C162.805 83.7421 162.784 83.8382 162.736 83.9223C162.689 84.0064 162.618 84.0748 162.532 84.1191C162.447 84.1634 162.35 84.1817 162.254 84.1716Z" fill="#263238"/>
<path d="M153.585 84.3529C153.89 84.3117 154.162 84.2293 154.467 84.1634C154.774 84.129 155.062 83.9993 155.291 83.7926C155.355 83.7114 155.389 83.6113 155.389 83.5083C155.389 83.4052 155.355 83.3052 155.291 83.224C155.142 83.0829 154.958 82.9841 154.758 82.9377C154.559 82.8914 154.35 82.8992 154.154 82.9603C153.739 83.0268 153.364 83.2439 153.099 83.5701C153.04 83.6497 153.005 83.7456 153.001 83.8451C152.996 83.9446 153.022 84.0431 153.075 84.1277C153.127 84.2123 153.204 84.2791 153.295 84.3193C153.386 84.3594 153.488 84.3712 153.585 84.3529Z" fill="#263238"/>
<path d="M155.621 87.6407C155.621 87.6407 155.555 87.6407 155.555 87.7148C155.613 88.6048 155.555 89.6348 154.731 89.9561C154.731 89.9561 154.731 90.0138 154.731 90.0056C155.736 89.816 155.819 88.4729 155.621 87.6407Z" fill="#263238"/>
<path d="M154.797 86.7343C153.363 86.6766 153.346 89.5441 154.673 89.6018C156 89.6595 156 86.7837 154.797 86.7343Z" fill="#263238"/>
<path d="M154.236 86.8826C153.981 87.0474 153.734 87.3275 153.412 87.3605C153.091 87.3935 152.803 87.0886 152.588 86.8002H152.539C152.539 87.344 152.729 87.9126 153.363 87.995C153.997 88.0774 154.294 87.5912 154.434 87.0391C154.426 86.9732 154.335 86.8167 154.236 86.8826Z" fill="#263238"/>
<path d="M160.565 87.4429C160.565 87.4429 160.631 87.4429 160.631 87.5171C160.589 88.407 160.688 89.437 161.496 89.7419C161.496 89.7419 161.496 89.7996 161.496 89.7913C160.507 89.643 160.383 88.2752 160.565 87.4429Z" fill="#263238"/>
<path d="M161.372 86.5201C162.798 86.4377 162.872 89.3052 161.545 89.3876C160.219 89.47 160.169 86.5942 161.372 86.5201Z" fill="#263238"/>
<path d="M161.974 86.7013C162.204 86.8414 162.435 87.1133 162.707 87.1298C162.979 87.1463 163.243 86.8249 163.44 86.52H163.482C163.482 87.0639 163.342 87.6407 162.822 87.756C162.303 87.8714 161.998 87.4017 161.834 86.8661C161.809 86.7919 161.883 86.6354 161.974 86.7013Z" fill="#263238"/>
<path d="M159.263 91.464C159.263 91.464 159.452 92.7907 159.452 93.4169C159.452 93.4828 159.304 93.5075 159.09 93.524C158.552 93.6257 157.997 93.5772 157.485 93.3838C156.974 93.1905 156.525 92.8598 156.189 92.4281C156.177 92.415 156.171 92.3976 156.172 92.3799C156.173 92.3621 156.18 92.3453 156.193 92.3333C156.207 92.3213 156.224 92.315 156.242 92.3158C156.259 92.3165 156.276 92.3243 156.288 92.3374C157.087 92.8815 158.042 93.1505 159.007 93.1038C159.049 92.9307 158.604 90.8378 158.703 90.8295C159.19 90.8686 159.669 90.9739 160.128 91.1427C159.815 88.3658 159.057 85.6631 158.777 82.9027C158.777 82.8808 158.785 82.8598 158.801 82.8444C158.816 82.8289 158.837 82.8203 158.859 82.8203C158.881 82.8203 158.902 82.8289 158.917 82.8444C158.933 82.8598 158.941 82.8808 158.941 82.9027C159.845 85.7761 160.461 88.7324 160.779 91.7277C160.804 92.0078 159.51 91.5464 159.263 91.464Z" fill="#263238"/>
<path d="M160.268 88.3081C160.07 86.1822 161.051 84.3529 162.452 84.1881C163.852 84.0233 165.163 85.6713 165.36 87.7972C165.558 89.9232 164.536 91.7524 163.177 91.9172C161.817 92.082 160.466 90.434 160.268 88.3081ZM160.787 88.2587C160.96 90.0962 162.007 91.5052 163.127 91.4064C164.248 91.3075 165.023 89.7172 164.85 87.8796C164.676 86.0421 163.622 84.6331 162.501 84.732C161.381 84.8308 160.614 86.4212 160.787 88.2587Z" fill="#263238"/>
<path d="M150.586 89.2227C150.568 88.5185 150.757 87.8244 151.128 87.2257C151.5 86.627 152.038 86.1498 152.676 85.8526C153.315 85.5554 154.027 85.4512 154.724 85.5527C155.421 85.6543 156.073 85.9572 156.601 86.4243C157.128 86.8914 157.508 87.5023 157.693 88.1821C157.878 88.8618 157.86 89.5808 157.642 90.2508C157.425 90.9208 157.016 91.5126 156.466 91.9535C155.917 92.3944 155.251 92.6654 154.55 92.733C153.559 92.7894 152.587 92.452 151.845 91.7945C151.102 91.1369 150.65 90.2125 150.586 89.2227ZM151.105 89.1733C151.21 89.7658 151.485 90.3149 151.897 90.7535C152.309 91.1922 152.84 91.5015 153.424 91.6436C154.009 91.7858 154.622 91.7546 155.189 91.5538C155.757 91.3531 156.253 90.9916 156.618 90.5134C156.984 90.0352 157.202 89.461 157.246 88.861C157.29 88.2609 157.159 87.661 156.868 87.1344C156.577 86.6078 156.138 86.1773 155.607 85.8955C155.075 85.6138 154.473 85.4929 153.874 85.5477C153.026 85.6624 152.259 86.1085 151.74 86.7882C151.221 87.4678 150.993 88.3256 151.105 89.1733Z" fill="#263238"/>
<path d="M157.574 88.2092C159.436 87.3852 160.367 87.9043 160.375 87.9126L160.655 87.4758C160.614 87.4758 159.51 86.7507 157.359 87.7395L157.574 88.2092Z" fill="#263238"/>
<path d="M150.792 88.8602L150.842 88.3411C150.495 88.3411 142.503 87.5995 141.646 87.6324C140.789 87.6654 138.753 89.0415 138.531 89.198L138.828 89.6265C139.674 88.9863 140.621 88.4907 141.629 88.1598H141.728C142.354 88.168 147.949 88.6047 150.792 88.8602Z" fill="#263238"/>
<path d="M141.728 89.0497C143.137 88.9673 146.812 85.0698 146.928 78.247C146.928 78.247 146.4 84.3694 145.947 85.2675C145.494 86.1657 147.999 83.0757 148.164 77.5796C149.899 78.8179 151.803 79.8029 153.816 80.5048C156.412 81.2299 158.002 81.2052 158.192 81.0157C158.381 80.8262 154.55 79.6231 153.511 78.4366C153.511 78.4366 160.433 81.6419 163.614 81.8891C163.984 81.8891 164.438 74.333 159.494 71.1194C154.55 67.9058 146.763 71.3831 144.662 73.4102C144.662 73.4102 142.19 73.7562 139.528 77.4066C136.866 81.0569 140.212 89.1403 141.728 89.0497Z" fill="#263238"/>
<path d="M143.508 90.8213C143.508 90.8213 140.682 86.7013 138.828 87.723C136.974 88.7448 139.067 94.6529 141.234 95.4769C141.504 95.6017 141.798 95.6706 142.096 95.6795C142.394 95.6884 142.69 95.6371 142.968 95.5286C143.246 95.4201 143.499 95.2567 143.712 95.0482C143.925 94.8397 144.094 94.5903 144.208 94.315L143.508 90.8213Z" fill="#EB9481"/>
<path d="M139.47 89.4041V89.4617C140.986 90.0962 141.778 91.5135 142.33 92.9802C142.243 92.8262 142.124 92.693 141.981 92.5899C141.837 92.4868 141.673 92.4163 141.5 92.3834C141.326 92.3504 141.148 92.3557 140.976 92.3991C140.805 92.4424 140.646 92.5226 140.509 92.6341C140.509 92.6341 140.509 92.7248 140.55 92.7165C140.818 92.6323 141.106 92.6339 141.373 92.7211C141.641 92.8082 141.874 92.9766 142.041 93.2027C142.32 93.5801 142.557 93.9861 142.75 94.414C142.816 94.5541 143.063 94.4799 143.014 94.3233C143.046 92.3457 141.555 89.6183 139.47 89.4041Z" fill="#263238"/>
<path d="M143.055 95.1803C143.056 95.3697 143.002 95.5553 142.898 95.7135C142.794 95.8718 142.645 95.9956 142.47 96.0692C142.296 96.1428 142.104 96.1629 141.918 96.127C141.732 96.091 141.561 96.0006 141.426 95.8673C141.292 95.734 141.2 95.5637 141.162 95.378C141.125 95.1924 141.143 94.9998 141.215 94.8247C141.287 94.6495 141.41 94.4997 141.567 94.3943C141.724 94.2889 141.91 94.2327 142.099 94.2327C142.351 94.2327 142.593 94.3322 142.772 94.5097C142.951 94.6872 143.053 94.9282 143.055 95.1803Z" fill="white"/>
<path d="M172.216 173.576C172.216 173.576 128.33 174.227 117.437 173.46C117.437 173.46 126.319 123.114 138.037 110.391C138.473 109.913 138.935 109.459 139.421 109.032C140.138 108.43 140.039 103.626 140.377 103.264C140.715 102.901 154.953 104.772 155.135 105.118C155.316 105.464 156.049 109.996 156.049 109.996C159.279 114.116 169.67 128.354 170.881 134.23C172.093 140.105 168.277 146.59 168.277 146.59L172.216 173.576Z" fill="#1C1C1C"/>
<path d="M134.683 119.373C132.087 131.881 133.628 158.925 139.627 163.869C149.515 171.961 173.279 174.325 179.912 175.108C182.772 175.446 188.465 156.733 186.504 154.319C184.543 151.904 155.332 148.147 153.94 146.903C152.976 146.013 148.435 129.673 144.521 120.461C139.256 107.993 135.631 114.759 134.683 119.373Z" fill="#EB9481"/>
<path d="M181.56 152.811C181.56 152.811 190.328 152.72 196.063 152.934C199.268 153.05 204.731 153.758 207.047 154.912C210.499 156.651 223.848 166.127 221.615 169.414C219.596 172.389 215.624 168.475 215.624 168.475C215.624 168.475 220.371 172.34 217.462 174.68C214.553 177.02 209.848 171.433 209.848 171.433C209.848 171.433 215.171 175.191 211.826 177.383C208.925 179.294 202.836 173.427 202.836 173.427C202.836 173.427 208.859 176.723 206.074 179.006C203.001 181.478 192.767 173.831 192.767 173.831C185.433 175.479 180.81 175.479 175.421 174.597C174.433 174.433 181.56 152.811 181.56 152.811Z" fill="#EB9481"/>
<path d="M211.315 172.735L210.12 171.474C209.381 170.639 208.594 169.847 207.763 169.101C206.939 168.393 206.115 167.717 205.209 167.074C204.303 166.432 203.281 165.789 202.375 165.088C202.3 165.031 202.218 165.138 202.3 165.187C203.2 165.881 204.064 166.621 204.888 167.404C205.712 168.145 206.536 168.904 207.36 169.653C208.184 170.403 209.008 171.071 209.832 171.788C210.235 172.142 210.656 172.513 211.027 172.883C211.378 173.264 211.761 173.614 212.172 173.93C212.213 173.93 212.263 173.93 212.238 173.864C211.971 173.456 211.662 173.077 211.315 172.735Z" fill="#263238"/>
<path d="M216.597 169.299C215.275 167.702 213.843 166.198 212.312 164.8C210.762 163.411 209.075 162.182 207.277 161.133C207.211 161.133 207.145 161.183 207.195 161.232C208.744 162.625 210.318 163.993 211.892 165.352C212.658 166.02 216.053 169.167 216.448 169.472C216.539 169.522 216.654 169.39 216.597 169.299Z" fill="#263238"/>
<path d="M206.429 176.097C205.146 174.623 203.77 173.233 202.309 171.936C200.701 170.752 199.007 169.688 197.241 168.755C197.175 168.755 197.109 168.821 197.167 168.862C198.765 170.049 200.38 171.194 201.921 172.455C202.679 173.073 205.53 175.693 206.305 176.212C206.387 176.262 206.478 176.163 206.429 176.097Z" fill="#263238"/>
<path d="M173.337 175.883L183.793 151.501C183.793 151.501 155.151 146.763 154.269 146.186C153.388 145.609 148.164 126.591 144.81 119.126C141.456 111.66 135.696 107.277 133.472 123.303C131.247 139.33 134.469 158.9 137.691 162.971C141.596 167.898 157.063 174.136 173.337 175.883Z" fill="#1C1C1C"/>
<path d="M158.62 172.801C154.335 171.639 150.158 169.612 146.062 167.857C142.544 166.382 138.951 164.561 136.998 161.109C136.088 159.351 135.452 157.464 135.111 155.514C134.658 153.338 134.287 151.138 133.974 148.922C133.595 146.395 133.255 143.862 132.953 141.324C132.804 140.022 132.656 138.72 132.524 137.419C132.392 136.117 132.153 134.815 132.104 133.505C132.104 133.487 132.097 133.47 132.084 133.458C132.072 133.446 132.055 133.439 132.038 133.439C132.02 133.439 132.004 133.446 131.991 133.458C131.979 133.47 131.972 133.487 131.972 133.505C132.063 134.708 131.972 135.919 132.071 137.13C132.071 137.954 132.17 138.712 132.227 139.503L131.997 139.001C131.743 138.423 131.55 137.821 131.42 137.204C131.42 137.13 131.28 137.163 131.296 137.204C131.445 137.822 131.593 138.449 131.766 139.058C131.848 139.355 131.947 139.652 132.063 139.948C132.132 140.147 132.211 140.343 132.302 140.533C132.499 142.901 132.755 145.258 133.068 147.603C133.373 149.877 133.727 152.135 134.131 154.393C134.43 156.39 134.961 158.345 135.713 160.219C136.461 161.985 137.606 163.555 139.058 164.808C140.564 166.044 142.226 167.075 144.002 167.874C148.019 169.729 152.17 171.277 156.42 172.504C161.504 174.103 163.053 173.996 158.62 172.801Z" fill="#263238"/>
<path d="M169.373 148.963C168.319 148.823 155.851 146.202 155.365 146.062C155.122 145.988 154.902 145.852 154.727 145.667C154.552 145.482 154.429 145.255 154.368 145.008C153.981 144.002 153.643 142.972 153.281 141.959C152.654 140.212 152.017 138.473 151.369 136.743C151.369 136.356 151.295 135.919 151.254 135.581C151.212 135.243 151.13 134.658 151.056 134.197C150.891 133.2 150.594 132.219 150.471 131.222C150.471 131.123 150.314 131.156 150.339 131.222C150.59 132.204 150.739 133.209 150.784 134.221C150.825 134.617 150.85 135.045 150.875 135.416C150.495 134.403 150.108 133.389 149.704 132.384C149.235 131.214 148.699 130.035 148.32 128.832C148.32 128.75 148.172 128.791 148.197 128.832C148.625 129.912 148.93 131.057 149.268 132.128C149.606 133.2 149.968 134.353 150.331 135.466C151.039 137.649 151.789 139.816 152.547 141.992C152.91 143.038 153.264 144.101 153.651 145.139C153.758 145.528 153.967 145.881 154.257 146.161C154.547 146.441 154.907 146.637 155.299 146.73C157.467 147.315 168.063 149.07 169.349 149.119C169.48 149.202 169.513 148.979 169.373 148.963Z" fill="#263238"/>
<path d="M178.495 151.88C176.847 155.382 175.199 158.859 173.708 162.435C172.199 165.953 170.876 169.548 169.744 173.205C169.738 173.221 169.738 173.24 169.745 173.256C169.752 173.272 169.765 173.285 169.781 173.291C169.798 173.298 169.816 173.298 169.832 173.291C169.848 173.284 169.861 173.271 169.868 173.254C171.516 169.818 172.958 166.25 174.416 162.715C175.875 159.18 177.201 155.546 178.676 152.003C178.75 151.855 178.561 151.74 178.495 151.88Z" fill="#263238"/>
<path d="M209.296 149.095C208.035 149.803 200.817 147.809 197.892 150.001C195.956 151.451 194.06 154.945 193.648 159.502C193.228 164.207 196.944 163.968 198.32 161.974C199.997 159.349 201.46 156.593 202.696 153.734C204.019 153.997 205.324 154.347 206.602 154.78L209.296 149.095Z" fill="#AD6359"/>
<path d="M200.446 165.517C198.213 163.177 187.056 171.755 190.558 175.652C194.06 179.55 202.968 168.17 200.446 165.517Z" fill="#AD6359"/>
<path d="M204.171 168.871C201.938 166.53 190.781 175.108 194.283 179.006C197.785 182.903 206.692 171.524 204.171 168.871Z" fill="#AD6359"/>
<path d="M207.104 170.057C204.756 168.236 195.807 177.588 199.556 180.637C203.306 183.686 209.766 172.117 207.104 170.057Z" fill="#AD6359"/>
<path d="M210.293 170.568C207.599 169.538 201.921 180.744 206.264 182.516C210.606 184.288 213.35 171.697 210.293 170.568Z" fill="#AD6359"/>
<path d="M200.117 169.373C199.497 169.788 198.913 170.254 198.37 170.766C197.768 171.293 197.175 171.829 196.631 172.414C196.101 172.967 195.603 173.55 195.14 174.161C194.654 174.82 194.25 175.537 193.755 176.179C193.747 176.185 193.739 176.193 193.734 176.202C193.729 176.212 193.726 176.222 193.725 176.233C193.725 176.243 193.727 176.254 193.732 176.263C193.736 176.273 193.743 176.281 193.752 176.288C193.76 176.294 193.77 176.298 193.781 176.3C193.791 176.302 193.802 176.301 193.812 176.297C193.822 176.294 193.831 176.288 193.838 176.281C193.846 176.273 193.851 176.264 193.854 176.254C194.343 175.632 194.874 175.046 195.445 174.499C195.98 173.938 196.483 173.353 197.019 172.785C197.554 172.216 198.032 171.664 198.559 171.137C199.087 170.609 199.68 170.065 200.207 169.489C200.232 169.414 200.174 169.34 200.117 169.373Z" fill="#263238"/>
<path d="M204.55 170.42C204.072 171.153 202.399 173.996 201.888 174.713C201.377 175.43 200.842 176.146 200.298 176.847C199.754 177.547 199.227 178.314 198.609 178.973C198.559 179.03 198.65 179.121 198.708 179.063C199.326 178.404 200.001 177.803 200.586 177.111C201.171 176.418 201.707 175.718 202.234 174.985C203.15 173.531 203.975 172.023 204.706 170.469C204.706 170.395 204.591 170.354 204.55 170.42Z" fill="#263238"/>
<path d="M207.648 172.018C207.154 173.106 206.725 174.235 206.223 175.314C205.975 175.85 205.72 176.385 205.473 176.962L205.127 177.745C205.018 178.057 204.88 178.357 204.715 178.643C204.665 178.709 204.797 178.783 204.83 178.693C204.996 178.367 205.189 178.055 205.407 177.762C205.547 177.514 205.695 177.267 205.827 177.02C206.107 176.471 206.363 175.935 206.593 175.413C207.075 174.346 207.477 173.244 207.796 172.117C207.81 172.097 207.814 172.073 207.81 172.05C207.805 172.027 207.791 172.007 207.772 171.994C207.752 171.98 207.728 171.976 207.705 171.98C207.682 171.985 207.661 171.999 207.648 172.018Z" fill="#263238"/>
<path d="M214.924 78.3624C214.53 82.1264 213.098 85.707 210.788 88.7046C208.477 91.7022 205.38 93.9991 201.84 95.339C198.301 96.679 194.459 97.0092 190.742 96.293C187.026 95.5767 183.582 93.8421 180.794 91.2827L170.568 92.7824L175.685 83.9491C174.355 80.6814 173.895 77.1249 174.348 73.6263C174.801 70.1276 176.153 66.8059 178.271 63.9848C180.389 61.1636 183.202 58.9392 186.436 57.5282C189.669 56.1172 193.213 55.5676 196.722 55.9331C202.109 56.4962 207.052 59.1748 210.465 63.3805C213.878 67.5862 215.482 72.9748 214.924 78.3624Z" fill="white"/>
<path d="M214.924 78.3624C214.527 82.1251 213.102 85.7058 210.804 88.7118C210.236 89.4625 209.619 90.1754 208.958 90.846C208.277 91.4972 207.556 92.1054 206.799 92.667C205.291 93.8138 203.626 94.7379 201.855 95.411C200.094 96.105 198.244 96.5461 196.359 96.7211C195.417 96.8102 194.47 96.8295 193.525 96.7788C192.576 96.7547 191.631 96.6555 190.698 96.4822C186.935 95.8046 183.434 94.0927 180.588 91.5382L180.835 91.6123L170.634 93.112L169.892 93.2274L170.263 92.5764L175.347 83.7266V84.0727C174.155 81.1531 173.647 77.9994 173.861 74.8531C174.075 71.7067 175.006 68.6511 176.583 65.92C178.173 63.1951 180.359 60.8654 182.978 59.1055C186.232 56.9268 190.04 55.7209 193.955 55.629C197.87 55.5371 201.73 56.5631 205.083 58.5867C208.436 60.6103 211.142 63.5477 212.885 67.0546C214.628 70.5615 215.335 74.4926 214.924 78.3871V78.3624ZM214.924 78.3624C215.25 75.2864 214.865 72.1767 213.8 69.2727C212.735 66.3687 211.017 63.748 208.78 61.6123C206.542 59.4766 203.844 57.883 200.894 56.9541C197.943 56.0252 194.819 55.7858 191.761 56.2545C188.735 56.6989 185.85 57.826 183.324 59.5505C180.829 61.303 178.745 63.5777 177.218 66.2166C175.709 68.8638 174.821 71.8196 174.622 74.8604C174.435 77.8937 174.925 80.9307 176.056 83.7514L176.13 83.9326L176.031 84.1057L170.89 92.9225L170.527 92.3786L180.753 90.9449H180.893L181 91.0355C183.727 93.5895 187.111 95.3354 190.773 96.0784C191.688 96.2608 192.617 96.3738 193.55 96.4162C194.479 96.4821 195.413 96.4821 196.343 96.4162C198.208 96.2721 200.045 95.8671 201.798 95.2132C203.569 94.5801 205.235 93.6858 206.742 92.5599C208.274 91.4747 209.628 90.1569 210.755 88.6542C213.06 85.6699 214.502 82.11 214.924 78.3624Z" fill="#263238"/>
<path d="M192.215 87.8879L183.497 79.0546L186.422 76.1623L191.522 81.3206L202.111 64.717L205.58 66.9335L192.215 87.8879Z" fill="#1C1C1C"/>
</svg>
